<?xml version="1.0" encoding="utf-8" standalone="no"?>
<!DOCTYPE svg PUBLIC "-//W3C//DTD SVG 1.1//EN"
  "http://www.w3.org/Graphics/SVG/1.1/DTD/svg11.dtd">
<svg xmlns:xlink="http://www.w3.org/1999/xlink" width="706.015406pt" height="334.08pt" viewBox="0 0 706.015406 334.08" xmlns="http://www.w3.org/2000/svg" version="1.1">
 <metadata>
  <rdf:RDF xmlns:dc="http://purl.org/dc/elements/1.1/" xmlns:cc="http://creativecommons.org/ns#" xmlns:rdf="http://www.w3.org/1999/02/22-rdf-syntax-ns#">
   <cc:Work>
    <dc:type rdf:resource="http://purl.org/dc/dcmitype/StillImage"/>
    <dc:date>2025-06-16T22:17:54.012449</dc:date>
    <dc:format>image/svg+xml</dc:format>
    <dc:creator>
     <cc:Agent>
      <dc:title>Matplotlib v3.9.2, https://matplotlib.org/</dc:title>
     </cc:Agent>
    </dc:creator>
   </cc:Work>
  </rdf:RDF>
 </metadata>
 <defs>
  <style type="text/css">*{stroke-linejoin: round; stroke-linecap: butt}</style>
 </defs>
 <g id="figure_1">
  <g id="patch_1">
   <path d="M 0 334.08 
L 706.015406 334.08 
L 706.015406 0 
L 0 0 
z
" style="fill: #ffffff"/>
  </g>
  <g id="axes_1">
   <g id="patch_2">
    <path d="M 58.16375 291.120312 
L 442.08 291.120312 
L 442.08 7.2 
L 58.16375 7.2 
z
" style="fill: #ffffff"/>
   </g>
   <g id="matplotlib.axis_1">
    <g id="xtick_1">
     <g id="line2d_1">
      <path d="M 75.614489 291.120312 
L 75.614489 7.2 
" clip-path="url(#p3890318962)" style="fill: none; stroke: #cccccc; stroke-linecap: round"/>
     </g>
     <g id="line2d_2">
      <defs>
       <path id="m898297cb56" d="M 0 0 
L 0 6 
" style="stroke: #262626; stroke-width: 1.25"/>
      </defs>
      <g>
       <use xlink:href="#m898297cb56" x="75.614489" y="291.120312" style="fill: #262626; stroke: #262626; stroke-width: 1.25"/>
      </g>
     </g>
     <g id="text_1">
      <!-- $2^{11}$ -->
      <g style="fill: #262626" transform="translate(66.979489 308.978594) scale(0.11 -0.11)">
       <defs>
        <path id="DejaVuSans-32" d="M 1228 531 
L 3431 531 
L 3431 0 
L 469 0 
L 469 531 
Q 828 903 1448 1529 
Q 2069 2156 2228 2338 
Q 2531 2678 2651 2914 
Q 2772 3150 2772 3378 
Q 2772 3750 2511 3984 
Q 2250 4219 1831 4219 
Q 1534 4219 1204 4116 
Q 875 4013 500 3803 
L 500 4441 
Q 881 4594 1212 4672 
Q 1544 4750 1819 4750 
Q 2544 4750 2975 4387 
Q 3406 4025 3406 3419 
Q 3406 3131 3298 2873 
Q 3191 2616 2906 2266 
Q 2828 2175 2409 1742 
Q 1991 1309 1228 531 
z
" transform="scale(0.015625)"/>
        <path id="DejaVuSans-31" d="M 794 531 
L 1825 531 
L 1825 4091 
L 703 3866 
L 703 4441 
L 1819 4666 
L 2450 4666 
L 2450 531 
L 3481 531 
L 3481 0 
L 794 0 
L 794 531 
z
" transform="scale(0.015625)"/>
       </defs>
       <use xlink:href="#DejaVuSans-32" transform="translate(0 0.684375)"/>
       <use xlink:href="#DejaVuSans-31" transform="translate(64.580078 38.965625) scale(0.7)"/>
       <use xlink:href="#DejaVuSans-31" transform="translate(109.116211 38.965625) scale(0.7)"/>
      </g>
     </g>
    </g>
    <g id="xtick_2">
     <g id="line2d_3">
      <path d="M 98.88214 291.120312 
L 98.88214 7.2 
" clip-path="url(#p3890318962)" style="fill: none; stroke: #cccccc; stroke-linecap: round"/>
     </g>
     <g id="line2d_4">
      <g>
       <use xlink:href="#m898297cb56" x="98.88214" y="291.120312" style="fill: #262626; stroke: #262626; stroke-width: 1.25"/>
      </g>
     </g>
     <g id="text_2">
      <!-- $2^{12}$ -->
      <g style="fill: #262626" transform="translate(90.24714 308.978594) scale(0.11 -0.11)">
       <use xlink:href="#DejaVuSans-32" transform="translate(0 0.765625)"/>
       <use xlink:href="#DejaVuSans-31" transform="translate(64.580078 39.046875) scale(0.7)"/>
       <use xlink:href="#DejaVuSans-32" transform="translate(109.116211 39.046875) scale(0.7)"/>
      </g>
     </g>
    </g>
    <g id="xtick_3">
     <g id="line2d_5">
      <path d="M 122.149792 291.120312 
L 122.149792 7.2 
" clip-path="url(#p3890318962)" style="fill: none; stroke: #cccccc; stroke-linecap: round"/>
     </g>
     <g id="line2d_6">
      <g>
       <use xlink:href="#m898297cb56" x="122.149792" y="291.120312" style="fill: #262626; stroke: #262626; stroke-width: 1.25"/>
      </g>
     </g>
     <g id="text_3">
      <!-- $2^{13}$ -->
      <g style="fill: #262626" transform="translate(113.514792 308.978594) scale(0.11 -0.11)">
       <defs>
        <path id="DejaVuSans-33" d="M 2597 2516 
Q 3050 2419 3304 2112 
Q 3559 1806 3559 1356 
Q 3559 666 3084 287 
Q 2609 -91 1734 -91 
Q 1441 -91 1130 -33 
Q 819 25 488 141 
L 488 750 
Q 750 597 1062 519 
Q 1375 441 1716 441 
Q 2309 441 2620 675 
Q 2931 909 2931 1356 
Q 2931 1769 2642 2001 
Q 2353 2234 1838 2234 
L 1294 2234 
L 1294 2753 
L 1863 2753 
Q 2328 2753 2575 2939 
Q 2822 3125 2822 3475 
Q 2822 3834 2567 4026 
Q 2313 4219 1838 4219 
Q 1578 4219 1281 4162 
Q 984 4106 628 3988 
L 628 4550 
Q 988 4650 1302 4700 
Q 1616 4750 1894 4750 
Q 2613 4750 3031 4423 
Q 3450 4097 3450 3541 
Q 3450 3153 3228 2886 
Q 3006 2619 2597 2516 
z
" transform="scale(0.015625)"/>
       </defs>
       <use xlink:href="#DejaVuSans-32" transform="translate(0 0.765625)"/>
       <use xlink:href="#DejaVuSans-31" transform="translate(64.580078 39.046875) scale(0.7)"/>
       <use xlink:href="#DejaVuSans-33" transform="translate(109.116211 39.046875) scale(0.7)"/>
      </g>
     </g>
    </g>
    <g id="xtick_4">
     <g id="line2d_7">
      <path d="M 145.417443 291.120312 
L 145.417443 7.2 
" clip-path="url(#p3890318962)" style="fill: none; stroke: #cccccc; stroke-linecap: round"/>
     </g>
     <g id="line2d_8">
      <g>
       <use xlink:href="#m898297cb56" x="145.417443" y="291.120312" style="fill: #262626; stroke: #262626; stroke-width: 1.25"/>
      </g>
     </g>
     <g id="text_4">
      <!-- $2^{14}$ -->
      <g style="fill: #262626" transform="translate(136.782443 308.978594) scale(0.11 -0.11)">
       <defs>
        <path id="DejaVuSans-34" d="M 2419 4116 
L 825 1625 
L 2419 1625 
L 2419 4116 
z
M 2253 4666 
L 3047 4666 
L 3047 1625 
L 3713 1625 
L 3713 1100 
L 3047 1100 
L 3047 0 
L 2419 0 
L 2419 1100 
L 313 1100 
L 313 1709 
L 2253 4666 
z
" transform="scale(0.015625)"/>
       </defs>
       <use xlink:href="#DejaVuSans-32" transform="translate(0 0.684375)"/>
       <use xlink:href="#DejaVuSans-31" transform="translate(64.580078 38.965625) scale(0.7)"/>
       <use xlink:href="#DejaVuSans-34" transform="translate(109.116211 38.965625) scale(0.7)"/>
      </g>
     </g>
    </g>
    <g id="xtick_5">
     <g id="line2d_9">
      <path d="M 168.685095 291.120312 
L 168.685095 7.2 
" clip-path="url(#p3890318962)" style="fill: none; stroke: #cccccc; stroke-linecap: round"/>
     </g>
     <g id="line2d_10">
      <g>
       <use xlink:href="#m898297cb56" x="168.685095" y="291.120312" style="fill: #262626; stroke: #262626; stroke-width: 1.25"/>
      </g>
     </g>
     <g id="text_5">
      <!-- $2^{15}$ -->
      <g style="fill: #262626" transform="translate(160.050095 308.978594) scale(0.11 -0.11)">
       <defs>
        <path id="DejaVuSans-35" d="M 691 4666 
L 3169 4666 
L 3169 4134 
L 1269 4134 
L 1269 2991 
Q 1406 3038 1543 3061 
Q 1681 3084 1819 3084 
Q 2600 3084 3056 2656 
Q 3513 2228 3513 1497 
Q 3513 744 3044 326 
Q 2575 -91 1722 -91 
Q 1428 -91 1123 -41 
Q 819 9 494 109 
L 494 744 
Q 775 591 1075 516 
Q 1375 441 1709 441 
Q 2250 441 2565 725 
Q 2881 1009 2881 1497 
Q 2881 1984 2565 2268 
Q 2250 2553 1709 2553 
Q 1456 2553 1204 2497 
Q 953 2441 691 2322 
L 691 4666 
z
" transform="scale(0.015625)"/>
       </defs>
       <use xlink:href="#DejaVuSans-32" transform="translate(0 0.684375)"/>
       <use xlink:href="#DejaVuSans-31" transform="translate(64.580078 38.965625) scale(0.7)"/>
       <use xlink:href="#DejaVuSans-35" transform="translate(109.116211 38.965625) scale(0.7)"/>
      </g>
     </g>
    </g>
    <g id="xtick_6">
     <g id="line2d_11">
      <path d="M 191.952746 291.120312 
L 191.952746 7.2 
" clip-path="url(#p3890318962)" style="fill: none; stroke: #cccccc; stroke-linecap: round"/>
     </g>
     <g id="line2d_12">
      <g>
       <use xlink:href="#m898297cb56" x="191.952746" y="291.120312" style="fill: #262626; stroke: #262626; stroke-width: 1.25"/>
      </g>
     </g>
     <g id="text_6">
      <!-- $2^{16}$ -->
      <g style="fill: #262626" transform="translate(183.317746 308.978594) scale(0.11 -0.11)">
       <defs>
        <path id="DejaVuSans-36" d="M 2113 2584 
Q 1688 2584 1439 2293 
Q 1191 2003 1191 1497 
Q 1191 994 1439 701 
Q 1688 409 2113 409 
Q 2538 409 2786 701 
Q 3034 994 3034 1497 
Q 3034 2003 2786 2293 
Q 2538 2584 2113 2584 
z
M 3366 4563 
L 3366 3988 
Q 3128 4100 2886 4159 
Q 2644 4219 2406 4219 
Q 1781 4219 1451 3797 
Q 1122 3375 1075 2522 
Q 1259 2794 1537 2939 
Q 1816 3084 2150 3084 
Q 2853 3084 3261 2657 
Q 3669 2231 3669 1497 
Q 3669 778 3244 343 
Q 2819 -91 2113 -91 
Q 1303 -91 875 529 
Q 447 1150 447 2328 
Q 447 3434 972 4092 
Q 1497 4750 2381 4750 
Q 2619 4750 2861 4703 
Q 3103 4656 3366 4563 
z
" transform="scale(0.015625)"/>
       </defs>
       <use xlink:href="#DejaVuSans-32" transform="translate(0 0.765625)"/>
       <use xlink:href="#DejaVuSans-31" transform="translate(64.580078 39.046875) scale(0.7)"/>
       <use xlink:href="#DejaVuSans-36" transform="translate(109.116211 39.046875) scale(0.7)"/>
      </g>
     </g>
    </g>
    <g id="xtick_7">
     <g id="line2d_13">
      <path d="M 215.220398 291.120312 
L 215.220398 7.2 
" clip-path="url(#p3890318962)" style="fill: none; stroke: #cccccc; stroke-linecap: round"/>
     </g>
     <g id="line2d_14">
      <g>
       <use xlink:href="#m898297cb56" x="215.220398" y="291.120312" style="fill: #262626; stroke: #262626; stroke-width: 1.25"/>
      </g>
     </g>
     <g id="text_7">
      <!-- $2^{17}$ -->
      <g style="fill: #262626" transform="translate(206.585398 308.978594) scale(0.11 -0.11)">
       <defs>
        <path id="DejaVuSans-37" d="M 525 4666 
L 3525 4666 
L 3525 4397 
L 1831 0 
L 1172 0 
L 2766 4134 
L 525 4134 
L 525 4666 
z
" transform="scale(0.015625)"/>
       </defs>
       <use xlink:href="#DejaVuSans-32" transform="translate(0 0.684375)"/>
       <use xlink:href="#DejaVuSans-31" transform="translate(64.580078 38.965625) scale(0.7)"/>
       <use xlink:href="#DejaVuSans-37" transform="translate(109.116211 38.965625) scale(0.7)"/>
      </g>
     </g>
    </g>
    <g id="xtick_8">
     <g id="line2d_15">
      <path d="M 238.488049 291.120312 
L 238.488049 7.2 
" clip-path="url(#p3890318962)" style="fill: none; stroke: #cccccc; stroke-linecap: round"/>
     </g>
     <g id="line2d_16">
      <g>
       <use xlink:href="#m898297cb56" x="238.488049" y="291.120312" style="fill: #262626; stroke: #262626; stroke-width: 1.25"/>
      </g>
     </g>
     <g id="text_8">
      <!-- $2^{18}$ -->
      <g style="fill: #262626" transform="translate(229.853049 308.978594) scale(0.11 -0.11)">
       <defs>
        <path id="DejaVuSans-38" d="M 2034 2216 
Q 1584 2216 1326 1975 
Q 1069 1734 1069 1313 
Q 1069 891 1326 650 
Q 1584 409 2034 409 
Q 2484 409 2743 651 
Q 3003 894 3003 1313 
Q 3003 1734 2745 1975 
Q 2488 2216 2034 2216 
z
M 1403 2484 
Q 997 2584 770 2862 
Q 544 3141 544 3541 
Q 544 4100 942 4425 
Q 1341 4750 2034 4750 
Q 2731 4750 3128 4425 
Q 3525 4100 3525 3541 
Q 3525 3141 3298 2862 
Q 3072 2584 2669 2484 
Q 3125 2378 3379 2068 
Q 3634 1759 3634 1313 
Q 3634 634 3220 271 
Q 2806 -91 2034 -91 
Q 1263 -91 848 271 
Q 434 634 434 1313 
Q 434 1759 690 2068 
Q 947 2378 1403 2484 
z
M 1172 3481 
Q 1172 3119 1398 2916 
Q 1625 2713 2034 2713 
Q 2441 2713 2670 2916 
Q 2900 3119 2900 3481 
Q 2900 3844 2670 4047 
Q 2441 4250 2034 4250 
Q 1625 4250 1398 4047 
Q 1172 3844 1172 3481 
z
" transform="scale(0.015625)"/>
       </defs>
       <use xlink:href="#DejaVuSans-32" transform="translate(0 0.765625)"/>
       <use xlink:href="#DejaVuSans-31" transform="translate(64.580078 39.046875) scale(0.7)"/>
       <use xlink:href="#DejaVuSans-38" transform="translate(109.116211 39.046875) scale(0.7)"/>
      </g>
     </g>
    </g>
    <g id="xtick_9">
     <g id="line2d_17">
      <path d="M 261.755701 291.120312 
L 261.755701 7.2 
" clip-path="url(#p3890318962)" style="fill: none; stroke: #cccccc; stroke-linecap: round"/>
     </g>
     <g id="line2d_18">
      <g>
       <use xlink:href="#m898297cb56" x="261.755701" y="291.120312" style="fill: #262626; stroke: #262626; stroke-width: 1.25"/>
      </g>
     </g>
     <g id="text_9">
      <!-- $2^{19}$ -->
      <g style="fill: #262626" transform="translate(253.120701 308.978594) scale(0.11 -0.11)">
       <defs>
        <path id="DejaVuSans-39" d="M 703 97 
L 703 672 
Q 941 559 1184 500 
Q 1428 441 1663 441 
Q 2288 441 2617 861 
Q 2947 1281 2994 2138 
Q 2813 1869 2534 1725 
Q 2256 1581 1919 1581 
Q 1219 1581 811 2004 
Q 403 2428 403 3163 
Q 403 3881 828 4315 
Q 1253 4750 1959 4750 
Q 2769 4750 3195 4129 
Q 3622 3509 3622 2328 
Q 3622 1225 3098 567 
Q 2575 -91 1691 -91 
Q 1453 -91 1209 -44 
Q 966 3 703 97 
z
M 1959 2075 
Q 2384 2075 2632 2365 
Q 2881 2656 2881 3163 
Q 2881 3666 2632 3958 
Q 2384 4250 1959 4250 
Q 1534 4250 1286 3958 
Q 1038 3666 1038 3163 
Q 1038 2656 1286 2365 
Q 1534 2075 1959 2075 
z
" transform="scale(0.015625)"/>
       </defs>
       <use xlink:href="#DejaVuSans-32" transform="translate(0 0.765625)"/>
       <use xlink:href="#DejaVuSans-31" transform="translate(64.580078 39.046875) scale(0.7)"/>
       <use xlink:href="#DejaVuSans-39" transform="translate(109.116211 39.046875) scale(0.7)"/>
      </g>
     </g>
    </g>
    <g id="xtick_10">
     <g id="line2d_19">
      <path d="M 285.023352 291.120312 
L 285.023352 7.2 
" clip-path="url(#p3890318962)" style="fill: none; stroke: #cccccc; stroke-linecap: round"/>
     </g>
     <g id="line2d_20">
      <g>
       <use xlink:href="#m898297cb56" x="285.023352" y="291.120312" style="fill: #262626; stroke: #262626; stroke-width: 1.25"/>
      </g>
     </g>
     <g id="text_10">
      <!-- $2^{20}$ -->
      <g style="fill: #262626" transform="translate(276.388352 308.978594) scale(0.11 -0.11)">
       <defs>
        <path id="DejaVuSans-30" d="M 2034 4250 
Q 1547 4250 1301 3770 
Q 1056 3291 1056 2328 
Q 1056 1369 1301 889 
Q 1547 409 2034 409 
Q 2525 409 2770 889 
Q 3016 1369 3016 2328 
Q 3016 3291 2770 3770 
Q 2525 4250 2034 4250 
z
M 2034 4750 
Q 2819 4750 3233 4129 
Q 3647 3509 3647 2328 
Q 3647 1150 3233 529 
Q 2819 -91 2034 -91 
Q 1250 -91 836 529 
Q 422 1150 422 2328 
Q 422 3509 836 4129 
Q 1250 4750 2034 4750 
z
" transform="scale(0.015625)"/>
       </defs>
       <use xlink:href="#DejaVuSans-32" transform="translate(0 0.765625)"/>
       <use xlink:href="#DejaVuSans-32" transform="translate(64.580078 39.046875) scale(0.7)"/>
       <use xlink:href="#DejaVuSans-30" transform="translate(109.116211 39.046875) scale(0.7)"/>
      </g>
     </g>
    </g>
    <g id="xtick_11">
     <g id="line2d_21">
      <path d="M 308.291004 291.120312 
L 308.291004 7.2 
" clip-path="url(#p3890318962)" style="fill: none; stroke: #cccccc; stroke-linecap: round"/>
     </g>
     <g id="line2d_22">
      <g>
       <use xlink:href="#m898297cb56" x="308.291004" y="291.120312" style="fill: #262626; stroke: #262626; stroke-width: 1.25"/>
      </g>
     </g>
     <g id="text_11">
      <!-- $2^{21}$ -->
      <g style="fill: #262626" transform="translate(299.656004 308.978594) scale(0.11 -0.11)">
       <use xlink:href="#DejaVuSans-32" transform="translate(0 0.765625)"/>
       <use xlink:href="#DejaVuSans-32" transform="translate(64.580078 39.046875) scale(0.7)"/>
       <use xlink:href="#DejaVuSans-31" transform="translate(109.116211 39.046875) scale(0.7)"/>
      </g>
     </g>
    </g>
    <g id="xtick_12">
     <g id="line2d_23">
      <path d="M 331.558655 291.120312 
L 331.558655 7.2 
" clip-path="url(#p3890318962)" style="fill: none; stroke: #cccccc; stroke-linecap: round"/>
     </g>
     <g id="line2d_24">
      <g>
       <use xlink:href="#m898297cb56" x="331.558655" y="291.120312" style="fill: #262626; stroke: #262626; stroke-width: 1.25"/>
      </g>
     </g>
     <g id="text_12">
      <!-- $2^{22}$ -->
      <g style="fill: #262626" transform="translate(322.923655 308.978594) scale(0.11 -0.11)">
       <use xlink:href="#DejaVuSans-32" transform="translate(0 0.765625)"/>
       <use xlink:href="#DejaVuSans-32" transform="translate(64.580078 39.046875) scale(0.7)"/>
       <use xlink:href="#DejaVuSans-32" transform="translate(109.116211 39.046875) scale(0.7)"/>
      </g>
     </g>
    </g>
    <g id="xtick_13">
     <g id="line2d_25">
      <path d="M 354.826307 291.120312 
L 354.826307 7.2 
" clip-path="url(#p3890318962)" style="fill: none; stroke: #cccccc; stroke-linecap: round"/>
     </g>
     <g id="line2d_26">
      <g>
       <use xlink:href="#m898297cb56" x="354.826307" y="291.120312" style="fill: #262626; stroke: #262626; stroke-width: 1.25"/>
      </g>
     </g>
     <g id="text_13">
      <!-- $2^{23}$ -->
      <g style="fill: #262626" transform="translate(346.191307 308.978594) scale(0.11 -0.11)">
       <use xlink:href="#DejaVuSans-32" transform="translate(0 0.765625)"/>
       <use xlink:href="#DejaVuSans-32" transform="translate(64.580078 39.046875) scale(0.7)"/>
       <use xlink:href="#DejaVuSans-33" transform="translate(109.116211 39.046875) scale(0.7)"/>
      </g>
     </g>
    </g>
    <g id="xtick_14">
     <g id="line2d_27">
      <path d="M 378.093958 291.120312 
L 378.093958 7.2 
" clip-path="url(#p3890318962)" style="fill: none; stroke: #cccccc; stroke-linecap: round"/>
     </g>
     <g id="line2d_28">
      <g>
       <use xlink:href="#m898297cb56" x="378.093958" y="291.120312" style="fill: #262626; stroke: #262626; stroke-width: 1.25"/>
      </g>
     </g>
     <g id="text_14">
      <!-- $2^{24}$ -->
      <g style="fill: #262626" transform="translate(369.458958 308.978594) scale(0.11 -0.11)">
       <use xlink:href="#DejaVuSans-32" transform="translate(0 0.765625)"/>
       <use xlink:href="#DejaVuSans-32" transform="translate(64.580078 39.046875) scale(0.7)"/>
       <use xlink:href="#DejaVuSans-34" transform="translate(109.116211 39.046875) scale(0.7)"/>
      </g>
     </g>
    </g>
    <g id="xtick_15">
     <g id="line2d_29">
      <path d="M 401.36161 291.120312 
L 401.36161 7.2 
" clip-path="url(#p3890318962)" style="fill: none; stroke: #cccccc; stroke-linecap: round"/>
     </g>
     <g id="line2d_30">
      <g>
       <use xlink:href="#m898297cb56" x="401.36161" y="291.120312" style="fill: #262626; stroke: #262626; stroke-width: 1.25"/>
      </g>
     </g>
     <g id="text_15">
      <!-- $2^{25}$ -->
      <g style="fill: #262626" transform="translate(392.72661 308.978594) scale(0.11 -0.11)">
       <use xlink:href="#DejaVuSans-32" transform="translate(0 0.765625)"/>
       <use xlink:href="#DejaVuSans-32" transform="translate(64.580078 39.046875) scale(0.7)"/>
       <use xlink:href="#DejaVuSans-35" transform="translate(109.116211 39.046875) scale(0.7)"/>
      </g>
     </g>
    </g>
    <g id="xtick_16">
     <g id="line2d_31">
      <path d="M 424.629261 291.120312 
L 424.629261 7.2 
" clip-path="url(#p3890318962)" style="fill: none; stroke: #cccccc; stroke-linecap: round"/>
     </g>
     <g id="line2d_32">
      <g>
       <use xlink:href="#m898297cb56" x="424.629261" y="291.120312" style="fill: #262626; stroke: #262626; stroke-width: 1.25"/>
      </g>
     </g>
     <g id="text_16">
      <!-- $2^{26}$ -->
      <g style="fill: #262626" transform="translate(415.994261 308.978594) scale(0.11 -0.11)">
       <use xlink:href="#DejaVuSans-32" transform="translate(0 0.765625)"/>
       <use xlink:href="#DejaVuSans-32" transform="translate(64.580078 39.046875) scale(0.7)"/>
       <use xlink:href="#DejaVuSans-36" transform="translate(109.116211 39.046875) scale(0.7)"/>
      </g>
     </g>
    </g>
    <g id="text_17">
     <!-- Sequence size -->
     <g style="fill: #262626" transform="translate(201.919375 324.384375) scale(0.12 -0.12)">
      <defs>
       <path id="DejaVuSans-Bold-53" d="M 3834 4519 
L 3834 3531 
Q 3450 3703 3084 3790 
Q 2719 3878 2394 3878 
Q 1963 3878 1756 3759 
Q 1550 3641 1550 3391 
Q 1550 3203 1689 3098 
Q 1828 2994 2194 2919 
L 2706 2816 
Q 3484 2659 3812 2340 
Q 4141 2022 4141 1434 
Q 4141 663 3683 286 
Q 3225 -91 2284 -91 
Q 1841 -91 1394 -6 
Q 947 78 500 244 
L 500 1259 
Q 947 1022 1364 901 
Q 1781 781 2169 781 
Q 2563 781 2772 912 
Q 2981 1044 2981 1288 
Q 2981 1506 2839 1625 
Q 2697 1744 2272 1838 
L 1806 1941 
Q 1106 2091 782 2419 
Q 459 2747 459 3303 
Q 459 4000 909 4375 
Q 1359 4750 2203 4750 
Q 2588 4750 2994 4692 
Q 3400 4634 3834 4519 
z
" transform="scale(0.015625)"/>
       <path id="DejaVuSans-Bold-65" d="M 4031 1759 
L 4031 1441 
L 1416 1441 
Q 1456 1047 1700 850 
Q 1944 653 2381 653 
Q 2734 653 3104 758 
Q 3475 863 3866 1075 
L 3866 213 
Q 3469 63 3072 -14 
Q 2675 -91 2278 -91 
Q 1328 -91 801 392 
Q 275 875 275 1747 
Q 275 2603 792 3093 
Q 1309 3584 2216 3584 
Q 3041 3584 3536 3087 
Q 4031 2591 4031 1759 
z
M 2881 2131 
Q 2881 2450 2695 2645 
Q 2509 2841 2209 2841 
Q 1884 2841 1681 2658 
Q 1478 2475 1428 2131 
L 2881 2131 
z
" transform="scale(0.015625)"/>
       <path id="DejaVuSans-Bold-71" d="M 2181 2772 
Q 1825 2772 1636 2509 
Q 1447 2247 1447 1747 
Q 1447 1247 1636 984 
Q 1825 722 2181 722 
Q 2541 722 2730 984 
Q 2919 1247 2919 1747 
Q 2919 2247 2730 2509 
Q 2541 2772 2181 2772 
z
M 2919 506 
Q 2688 197 2409 53 
Q 2131 -91 1766 -91 
Q 1119 -91 703 423 
Q 288 938 288 1747 
Q 288 2556 703 3067 
Q 1119 3578 1766 3578 
Q 2131 3578 2409 3434 
Q 2688 3291 2919 2981 
L 2919 3500 
L 4044 3500 
L 4044 -1331 
L 2919 -1331 
L 2919 506 
z
" transform="scale(0.015625)"/>
       <path id="DejaVuSans-Bold-75" d="M 500 1363 
L 500 3500 
L 1625 3500 
L 1625 3150 
Q 1625 2866 1622 2436 
Q 1619 2006 1619 1863 
Q 1619 1441 1641 1255 
Q 1663 1069 1716 984 
Q 1784 875 1895 815 
Q 2006 756 2150 756 
Q 2500 756 2700 1025 
Q 2900 1294 2900 1772 
L 2900 3500 
L 4019 3500 
L 4019 0 
L 2900 0 
L 2900 506 
Q 2647 200 2364 54 
Q 2081 -91 1741 -91 
Q 1134 -91 817 281 
Q 500 653 500 1363 
z
" transform="scale(0.015625)"/>
       <path id="DejaVuSans-Bold-6e" d="M 4056 2131 
L 4056 0 
L 2931 0 
L 2931 347 
L 2931 1631 
Q 2931 2084 2911 2256 
Q 2891 2428 2841 2509 
Q 2775 2619 2662 2680 
Q 2550 2741 2406 2741 
Q 2056 2741 1856 2470 
Q 1656 2200 1656 1722 
L 1656 0 
L 538 0 
L 538 3500 
L 1656 3500 
L 1656 2988 
Q 1909 3294 2193 3439 
Q 2478 3584 2822 3584 
Q 3428 3584 3742 3212 
Q 4056 2841 4056 2131 
z
" transform="scale(0.015625)"/>
       <path id="DejaVuSans-Bold-63" d="M 3366 3391 
L 3366 2478 
Q 3138 2634 2908 2709 
Q 2678 2784 2431 2784 
Q 1963 2784 1702 2511 
Q 1441 2238 1441 1747 
Q 1441 1256 1702 982 
Q 1963 709 2431 709 
Q 2694 709 2930 787 
Q 3166 866 3366 1019 
L 3366 103 
Q 3103 6 2833 -42 
Q 2563 -91 2291 -91 
Q 1344 -91 809 395 
Q 275 881 275 1747 
Q 275 2613 809 3098 
Q 1344 3584 2291 3584 
Q 2566 3584 2833 3536 
Q 3100 3488 3366 3391 
z
" transform="scale(0.015625)"/>
       <path id="DejaVuSans-Bold-20" transform="scale(0.015625)"/>
       <path id="DejaVuSans-Bold-73" d="M 3272 3391 
L 3272 2541 
Q 2913 2691 2578 2766 
Q 2244 2841 1947 2841 
Q 1628 2841 1473 2761 
Q 1319 2681 1319 2516 
Q 1319 2381 1436 2309 
Q 1553 2238 1856 2203 
L 2053 2175 
Q 2913 2066 3209 1816 
Q 3506 1566 3506 1031 
Q 3506 472 3093 190 
Q 2681 -91 1863 -91 
Q 1516 -91 1145 -36 
Q 775 19 384 128 
L 384 978 
Q 719 816 1070 734 
Q 1422 653 1784 653 
Q 2113 653 2278 743 
Q 2444 834 2444 1013 
Q 2444 1163 2330 1236 
Q 2216 1309 1875 1350 
L 1678 1375 
Q 931 1469 631 1722 
Q 331 1975 331 2491 
Q 331 3047 712 3315 
Q 1094 3584 1881 3584 
Q 2191 3584 2531 3537 
Q 2872 3491 3272 3391 
z
" transform="scale(0.015625)"/>
       <path id="DejaVuSans-Bold-69" d="M 538 3500 
L 1656 3500 
L 1656 0 
L 538 0 
L 538 3500 
z
M 538 4863 
L 1656 4863 
L 1656 3950 
L 538 3950 
L 538 4863 
z
" transform="scale(0.015625)"/>
       <path id="DejaVuSans-Bold-7a" d="M 366 3500 
L 3419 3500 
L 3419 2719 
L 1575 800 
L 3419 800 
L 3419 0 
L 288 0 
L 288 781 
L 2131 2700 
L 366 2700 
L 366 3500 
z
" transform="scale(0.015625)"/>
      </defs>
      <use xlink:href="#DejaVuSans-Bold-53"/>
      <use xlink:href="#DejaVuSans-Bold-65" x="72.021484"/>
      <use xlink:href="#DejaVuSans-Bold-71" x="139.84375"/>
      <use xlink:href="#DejaVuSans-Bold-75" x="211.425781"/>
      <use xlink:href="#DejaVuSans-Bold-65" x="282.617188"/>
      <use xlink:href="#DejaVuSans-Bold-6e" x="350.439453"/>
      <use xlink:href="#DejaVuSans-Bold-63" x="421.630859"/>
      <use xlink:href="#DejaVuSans-Bold-65" x="480.908203"/>
      <use xlink:href="#DejaVuSans-Bold-20" x="548.730469"/>
      <use xlink:href="#DejaVuSans-Bold-73" x="583.544922"/>
      <use xlink:href="#DejaVuSans-Bold-69" x="643.066406"/>
      <use xlink:href="#DejaVuSans-Bold-7a" x="677.34375"/>
      <use xlink:href="#DejaVuSans-Bold-65" x="735.546875"/>
     </g>
    </g>
   </g>
   <g id="matplotlib.axis_2">
    <g id="ytick_1">
     <g id="line2d_33">
      <path d="M 58.16375 246.016525 
L 442.08 246.016525 
" clip-path="url(#p3890318962)" style="fill: none; stroke: #cccccc; stroke-linecap: round"/>
     </g>
     <g id="line2d_34">
      <defs>
       <path id="m9f773167be" d="M 0 0 
L -6 0 
" style="stroke: #262626; stroke-width: 1.25"/>
      </defs>
      <g>
       <use xlink:href="#m9f773167be" x="58.16375" y="246.016525" style="fill: #262626; stroke: #262626; stroke-width: 1.25"/>
      </g>
     </g>
     <g id="text_18">
      <!-- $\mathdefault{10^{-1}}$ -->
      <g style="fill: #262626" transform="translate(22.81375 250.195666) scale(0.11 -0.11)">
       <defs>
        <path id="DejaVuSans-2212" d="M 678 2272 
L 4684 2272 
L 4684 1741 
L 678 1741 
L 678 2272 
z
" transform="scale(0.015625)"/>
       </defs>
       <use xlink:href="#DejaVuSans-31" transform="translate(0 0.684375)"/>
       <use xlink:href="#DejaVuSans-30" transform="translate(63.623047 0.684375)"/>
       <use xlink:href="#DejaVuSans-2212" transform="translate(128.203125 38.965625) scale(0.7)"/>
       <use xlink:href="#DejaVuSans-31" transform="translate(186.855469 38.965625) scale(0.7)"/>
      </g>
     </g>
    </g>
    <g id="ytick_2">
     <g id="line2d_35">
      <path d="M 58.16375 197.6315 
L 442.08 197.6315 
" clip-path="url(#p3890318962)" style="fill: none; stroke: #cccccc; stroke-linecap: round"/>
     </g>
     <g id="line2d_36">
      <g>
       <use xlink:href="#m9f773167be" x="58.16375" y="197.6315" style="fill: #262626; stroke: #262626; stroke-width: 1.25"/>
      </g>
     </g>
     <g id="text_19">
      <!-- $\mathdefault{10^{0}}$ -->
      <g style="fill: #262626" transform="translate(29.30375 201.810641) scale(0.11 -0.11)">
       <use xlink:href="#DejaVuSans-31" transform="translate(0 0.765625)"/>
       <use xlink:href="#DejaVuSans-30" transform="translate(63.623047 0.765625)"/>
       <use xlink:href="#DejaVuSans-30" transform="translate(128.203125 39.046875) scale(0.7)"/>
      </g>
     </g>
    </g>
    <g id="ytick_3">
     <g id="line2d_37">
      <path d="M 58.16375 149.246475 
L 442.08 149.246475 
" clip-path="url(#p3890318962)" style="fill: none; stroke: #cccccc; stroke-linecap: round"/>
     </g>
     <g id="line2d_38">
      <g>
       <use xlink:href="#m9f773167be" x="58.16375" y="149.246475" style="fill: #262626; stroke: #262626; stroke-width: 1.25"/>
      </g>
     </g>
     <g id="text_20">
      <!-- $\mathdefault{10^{1}}$ -->
      <g style="fill: #262626" transform="translate(29.30375 153.425616) scale(0.11 -0.11)">
       <use xlink:href="#DejaVuSans-31" transform="translate(0 0.684375)"/>
       <use xlink:href="#DejaVuSans-30" transform="translate(63.623047 0.684375)"/>
       <use xlink:href="#DejaVuSans-31" transform="translate(128.203125 38.965625) scale(0.7)"/>
      </g>
     </g>
    </g>
    <g id="ytick_4">
     <g id="line2d_39">
      <path d="M 58.16375 100.86145 
L 442.08 100.86145 
" clip-path="url(#p3890318962)" style="fill: none; stroke: #cccccc; stroke-linecap: round"/>
     </g>
     <g id="line2d_40">
      <g>
       <use xlink:href="#m9f773167be" x="58.16375" y="100.86145" style="fill: #262626; stroke: #262626; stroke-width: 1.25"/>
      </g>
     </g>
     <g id="text_21">
      <!-- $\mathdefault{10^{2}}$ -->
      <g style="fill: #262626" transform="translate(29.30375 105.04059) scale(0.11 -0.11)">
       <use xlink:href="#DejaVuSans-31" transform="translate(0 0.765625)"/>
       <use xlink:href="#DejaVuSans-30" transform="translate(63.623047 0.765625)"/>
       <use xlink:href="#DejaVuSans-32" transform="translate(128.203125 39.046875) scale(0.7)"/>
      </g>
     </g>
    </g>
    <g id="ytick_5">
     <g id="line2d_41">
      <path d="M 58.16375 52.476425 
L 442.08 52.476425 
" clip-path="url(#p3890318962)" style="fill: none; stroke: #cccccc; stroke-linecap: round"/>
     </g>
     <g id="line2d_42">
      <g>
       <use xlink:href="#m9f773167be" x="58.16375" y="52.476425" style="fill: #262626; stroke: #262626; stroke-width: 1.25"/>
      </g>
     </g>
     <g id="text_22">
      <!-- $\mathdefault{10^{3}}$ -->
      <g style="fill: #262626" transform="translate(29.30375 56.655565) scale(0.11 -0.11)">
       <use xlink:href="#DejaVuSans-31" transform="translate(0 0.765625)"/>
       <use xlink:href="#DejaVuSans-30" transform="translate(63.623047 0.765625)"/>
       <use xlink:href="#DejaVuSans-33" transform="translate(128.203125 39.046875) scale(0.7)"/>
      </g>
     </g>
    </g>
    <g id="ytick_6">
     <g id="line2d_43">
      <defs>
       <path id="m492bccf235" d="M 0 0 
L -4 0 
" style="stroke: #262626"/>
      </defs>
      <g>
       <use xlink:href="#m492bccf235" x="58.16375" y="279.836206" style="fill: #262626; stroke: #262626"/>
      </g>
     </g>
    </g>
    <g id="ytick_7">
     <g id="line2d_44">
      <g>
       <use xlink:href="#m492bccf235" x="58.16375" y="271.316026" style="fill: #262626; stroke: #262626"/>
      </g>
     </g>
    </g>
    <g id="ytick_8">
     <g id="line2d_45">
      <g>
       <use xlink:href="#m492bccf235" x="58.16375" y="265.270862" style="fill: #262626; stroke: #262626"/>
      </g>
     </g>
    </g>
    <g id="ytick_9">
     <g id="line2d_46">
      <g>
       <use xlink:href="#m492bccf235" x="58.16375" y="260.581869" style="fill: #262626; stroke: #262626"/>
      </g>
     </g>
    </g>
    <g id="ytick_10">
     <g id="line2d_47">
      <g>
       <use xlink:href="#m492bccf235" x="58.16375" y="256.750682" style="fill: #262626; stroke: #262626"/>
      </g>
     </g>
    </g>
    <g id="ytick_11">
     <g id="line2d_48">
      <g>
       <use xlink:href="#m492bccf235" x="58.16375" y="253.51146" style="fill: #262626; stroke: #262626"/>
      </g>
     </g>
    </g>
    <g id="ytick_12">
     <g id="line2d_49">
      <g>
       <use xlink:href="#m492bccf235" x="58.16375" y="250.705519" style="fill: #262626; stroke: #262626"/>
      </g>
     </g>
    </g>
    <g id="ytick_13">
     <g id="line2d_50">
      <g>
       <use xlink:href="#m492bccf235" x="58.16375" y="248.230502" style="fill: #262626; stroke: #262626"/>
      </g>
     </g>
    </g>
    <g id="ytick_14">
     <g id="line2d_51">
      <g>
       <use xlink:href="#m492bccf235" x="58.16375" y="231.451181" style="fill: #262626; stroke: #262626"/>
      </g>
     </g>
    </g>
    <g id="ytick_15">
     <g id="line2d_52">
      <g>
       <use xlink:href="#m492bccf235" x="58.16375" y="222.931001" style="fill: #262626; stroke: #262626"/>
      </g>
     </g>
    </g>
    <g id="ytick_16">
     <g id="line2d_53">
      <g>
       <use xlink:href="#m492bccf235" x="58.16375" y="216.885837" style="fill: #262626; stroke: #262626"/>
      </g>
     </g>
    </g>
    <g id="ytick_17">
     <g id="line2d_54">
      <g>
       <use xlink:href="#m492bccf235" x="58.16375" y="212.196844" style="fill: #262626; stroke: #262626"/>
      </g>
     </g>
    </g>
    <g id="ytick_18">
     <g id="line2d_55">
      <g>
       <use xlink:href="#m492bccf235" x="58.16375" y="208.365657" style="fill: #262626; stroke: #262626"/>
      </g>
     </g>
    </g>
    <g id="ytick_19">
     <g id="line2d_56">
      <g>
       <use xlink:href="#m492bccf235" x="58.16375" y="205.126435" style="fill: #262626; stroke: #262626"/>
      </g>
     </g>
    </g>
    <g id="ytick_20">
     <g id="line2d_57">
      <g>
       <use xlink:href="#m492bccf235" x="58.16375" y="202.320493" style="fill: #262626; stroke: #262626"/>
      </g>
     </g>
    </g>
    <g id="ytick_21">
     <g id="line2d_58">
      <g>
       <use xlink:href="#m492bccf235" x="58.16375" y="199.845477" style="fill: #262626; stroke: #262626"/>
      </g>
     </g>
    </g>
    <g id="ytick_22">
     <g id="line2d_59">
      <g>
       <use xlink:href="#m492bccf235" x="58.16375" y="183.066156" style="fill: #262626; stroke: #262626"/>
      </g>
     </g>
    </g>
    <g id="ytick_23">
     <g id="line2d_60">
      <g>
       <use xlink:href="#m492bccf235" x="58.16375" y="174.545976" style="fill: #262626; stroke: #262626"/>
      </g>
     </g>
    </g>
    <g id="ytick_24">
     <g id="line2d_61">
      <g>
       <use xlink:href="#m492bccf235" x="58.16375" y="168.500812" style="fill: #262626; stroke: #262626"/>
      </g>
     </g>
    </g>
    <g id="ytick_25">
     <g id="line2d_62">
      <g>
       <use xlink:href="#m492bccf235" x="58.16375" y="163.811819" style="fill: #262626; stroke: #262626"/>
      </g>
     </g>
    </g>
    <g id="ytick_26">
     <g id="line2d_63">
      <g>
       <use xlink:href="#m492bccf235" x="58.16375" y="159.980632" style="fill: #262626; stroke: #262626"/>
      </g>
     </g>
    </g>
    <g id="ytick_27">
     <g id="line2d_64">
      <g>
       <use xlink:href="#m492bccf235" x="58.16375" y="156.74141" style="fill: #262626; stroke: #262626"/>
      </g>
     </g>
    </g>
    <g id="ytick_28">
     <g id="line2d_65">
      <g>
       <use xlink:href="#m492bccf235" x="58.16375" y="153.935468" style="fill: #262626; stroke: #262626"/>
      </g>
     </g>
    </g>
    <g id="ytick_29">
     <g id="line2d_66">
      <g>
       <use xlink:href="#m492bccf235" x="58.16375" y="151.460452" style="fill: #262626; stroke: #262626"/>
      </g>
     </g>
    </g>
    <g id="ytick_30">
     <g id="line2d_67">
      <g>
       <use xlink:href="#m492bccf235" x="58.16375" y="134.681131" style="fill: #262626; stroke: #262626"/>
      </g>
     </g>
    </g>
    <g id="ytick_31">
     <g id="line2d_68">
      <g>
       <use xlink:href="#m492bccf235" x="58.16375" y="126.160951" style="fill: #262626; stroke: #262626"/>
      </g>
     </g>
    </g>
    <g id="ytick_32">
     <g id="line2d_69">
      <g>
       <use xlink:href="#m492bccf235" x="58.16375" y="120.115787" style="fill: #262626; stroke: #262626"/>
      </g>
     </g>
    </g>
    <g id="ytick_33">
     <g id="line2d_70">
      <g>
       <use xlink:href="#m492bccf235" x="58.16375" y="115.426794" style="fill: #262626; stroke: #262626"/>
      </g>
     </g>
    </g>
    <g id="ytick_34">
     <g id="line2d_71">
      <g>
       <use xlink:href="#m492bccf235" x="58.16375" y="111.595607" style="fill: #262626; stroke: #262626"/>
      </g>
     </g>
    </g>
    <g id="ytick_35">
     <g id="line2d_72">
      <g>
       <use xlink:href="#m492bccf235" x="58.16375" y="108.356385" style="fill: #262626; stroke: #262626"/>
      </g>
     </g>
    </g>
    <g id="ytick_36">
     <g id="line2d_73">
      <g>
       <use xlink:href="#m492bccf235" x="58.16375" y="105.550443" style="fill: #262626; stroke: #262626"/>
      </g>
     </g>
    </g>
    <g id="ytick_37">
     <g id="line2d_74">
      <g>
       <use xlink:href="#m492bccf235" x="58.16375" y="103.075427" style="fill: #262626; stroke: #262626"/>
      </g>
     </g>
    </g>
    <g id="ytick_38">
     <g id="line2d_75">
      <g>
       <use xlink:href="#m492bccf235" x="58.16375" y="86.296106" style="fill: #262626; stroke: #262626"/>
      </g>
     </g>
    </g>
    <g id="ytick_39">
     <g id="line2d_76">
      <g>
       <use xlink:href="#m492bccf235" x="58.16375" y="77.775926" style="fill: #262626; stroke: #262626"/>
      </g>
     </g>
    </g>
    <g id="ytick_40">
     <g id="line2d_77">
      <g>
       <use xlink:href="#m492bccf235" x="58.16375" y="71.730762" style="fill: #262626; stroke: #262626"/>
      </g>
     </g>
    </g>
    <g id="ytick_41">
     <g id="line2d_78">
      <g>
       <use xlink:href="#m492bccf235" x="58.16375" y="67.041769" style="fill: #262626; stroke: #262626"/>
      </g>
     </g>
    </g>
    <g id="ytick_42">
     <g id="line2d_79">
      <g>
       <use xlink:href="#m492bccf235" x="58.16375" y="63.210582" style="fill: #262626; stroke: #262626"/>
      </g>
     </g>
    </g>
    <g id="ytick_43">
     <g id="line2d_80">
      <g>
       <use xlink:href="#m492bccf235" x="58.16375" y="59.97136" style="fill: #262626; stroke: #262626"/>
      </g>
     </g>
    </g>
    <g id="ytick_44">
     <g id="line2d_81">
      <g>
       <use xlink:href="#m492bccf235" x="58.16375" y="57.165418" style="fill: #262626; stroke: #262626"/>
      </g>
     </g>
    </g>
    <g id="ytick_45">
     <g id="line2d_82">
      <g>
       <use xlink:href="#m492bccf235" x="58.16375" y="54.690402" style="fill: #262626; stroke: #262626"/>
      </g>
     </g>
    </g>
    <g id="ytick_46">
     <g id="line2d_83">
      <g>
       <use xlink:href="#m492bccf235" x="58.16375" y="37.911081" style="fill: #262626; stroke: #262626"/>
      </g>
     </g>
    </g>
    <g id="ytick_47">
     <g id="line2d_84">
      <g>
       <use xlink:href="#m492bccf235" x="58.16375" y="29.390901" style="fill: #262626; stroke: #262626"/>
      </g>
     </g>
    </g>
    <g id="ytick_48">
     <g id="line2d_85">
      <g>
       <use xlink:href="#m492bccf235" x="58.16375" y="23.345737" style="fill: #262626; stroke: #262626"/>
      </g>
     </g>
    </g>
    <g id="ytick_49">
     <g id="line2d_86">
      <g>
       <use xlink:href="#m492bccf235" x="58.16375" y="18.656744" style="fill: #262626; stroke: #262626"/>
      </g>
     </g>
    </g>
    <g id="ytick_50">
     <g id="line2d_87">
      <g>
       <use xlink:href="#m492bccf235" x="58.16375" y="14.825557" style="fill: #262626; stroke: #262626"/>
      </g>
     </g>
    </g>
    <g id="ytick_51">
     <g id="line2d_88">
      <g>
       <use xlink:href="#m492bccf235" x="58.16375" y="11.586335" style="fill: #262626; stroke: #262626"/>
      </g>
     </g>
    </g>
    <g id="ytick_52">
     <g id="line2d_89">
      <g>
       <use xlink:href="#m492bccf235" x="58.16375" y="8.780393" style="fill: #262626; stroke: #262626"/>
      </g>
     </g>
    </g>
    <g id="text_23">
     <!-- Sort time (ms) -->
     <g style="fill: #262626" transform="translate(16.318125 198.161406) rotate(-90) scale(0.12 -0.12)">
      <defs>
       <path id="DejaVuSans-Bold-6f" d="M 2203 2784 
Q 1831 2784 1636 2517 
Q 1441 2250 1441 1747 
Q 1441 1244 1636 976 
Q 1831 709 2203 709 
Q 2569 709 2762 976 
Q 2956 1244 2956 1747 
Q 2956 2250 2762 2517 
Q 2569 2784 2203 2784 
z
M 2203 3584 
Q 3106 3584 3614 3096 
Q 4122 2609 4122 1747 
Q 4122 884 3614 396 
Q 3106 -91 2203 -91 
Q 1297 -91 786 396 
Q 275 884 275 1747 
Q 275 2609 786 3096 
Q 1297 3584 2203 3584 
z
" transform="scale(0.015625)"/>
       <path id="DejaVuSans-Bold-72" d="M 3138 2547 
Q 2991 2616 2845 2648 
Q 2700 2681 2553 2681 
Q 2122 2681 1889 2404 
Q 1656 2128 1656 1613 
L 1656 0 
L 538 0 
L 538 3500 
L 1656 3500 
L 1656 2925 
Q 1872 3269 2151 3426 
Q 2431 3584 2822 3584 
Q 2878 3584 2943 3579 
Q 3009 3575 3134 3559 
L 3138 2547 
z
" transform="scale(0.015625)"/>
       <path id="DejaVuSans-Bold-74" d="M 1759 4494 
L 1759 3500 
L 2913 3500 
L 2913 2700 
L 1759 2700 
L 1759 1216 
Q 1759 972 1856 886 
Q 1953 800 2241 800 
L 2816 800 
L 2816 0 
L 1856 0 
Q 1194 0 917 276 
Q 641 553 641 1216 
L 641 2700 
L 84 2700 
L 84 3500 
L 641 3500 
L 641 4494 
L 1759 4494 
z
" transform="scale(0.015625)"/>
       <path id="DejaVuSans-Bold-6d" d="M 3781 2919 
Q 3994 3244 4286 3414 
Q 4578 3584 4928 3584 
Q 5531 3584 5847 3212 
Q 6163 2841 6163 2131 
L 6163 0 
L 5038 0 
L 5038 1825 
Q 5041 1866 5042 1909 
Q 5044 1953 5044 2034 
Q 5044 2406 4934 2573 
Q 4825 2741 4581 2741 
Q 4263 2741 4089 2478 
Q 3916 2216 3909 1719 
L 3909 0 
L 2784 0 
L 2784 1825 
Q 2784 2406 2684 2573 
Q 2584 2741 2328 2741 
Q 2006 2741 1831 2477 
Q 1656 2213 1656 1722 
L 1656 0 
L 531 0 
L 531 3500 
L 1656 3500 
L 1656 2988 
Q 1863 3284 2130 3434 
Q 2397 3584 2719 3584 
Q 3081 3584 3359 3409 
Q 3638 3234 3781 2919 
z
" transform="scale(0.015625)"/>
       <path id="DejaVuSans-Bold-28" d="M 2413 -844 
L 1484 -844 
Q 1006 -72 778 623 
Q 550 1319 550 2003 
Q 550 2688 779 3389 
Q 1009 4091 1484 4856 
L 2413 4856 
Q 2013 4116 1813 3408 
Q 1613 2700 1613 2009 
Q 1613 1319 1811 609 
Q 2009 -100 2413 -844 
z
" transform="scale(0.015625)"/>
       <path id="DejaVuSans-Bold-29" d="M 513 -844 
Q 913 -100 1113 609 
Q 1313 1319 1313 2009 
Q 1313 2700 1113 3408 
Q 913 4116 513 4856 
L 1441 4856 
Q 1916 4091 2145 3389 
Q 2375 2688 2375 2003 
Q 2375 1319 2147 623 
Q 1919 -72 1441 -844 
L 513 -844 
z
" transform="scale(0.015625)"/>
      </defs>
      <use xlink:href="#DejaVuSans-Bold-53"/>
      <use xlink:href="#DejaVuSans-Bold-6f" x="72.021484"/>
      <use xlink:href="#DejaVuSans-Bold-72" x="140.722656"/>
      <use xlink:href="#DejaVuSans-Bold-74" x="190.039062"/>
      <use xlink:href="#DejaVuSans-Bold-20" x="237.841797"/>
      <use xlink:href="#DejaVuSans-Bold-74" x="272.65625"/>
      <use xlink:href="#DejaVuSans-Bold-69" x="320.458984"/>
      <use xlink:href="#DejaVuSans-Bold-6d" x="354.736328"/>
      <use xlink:href="#DejaVuSans-Bold-65" x="458.935547"/>
      <use xlink:href="#DejaVuSans-Bold-20" x="526.757812"/>
      <use xlink:href="#DejaVuSans-Bold-28" x="561.572266"/>
      <use xlink:href="#DejaVuSans-Bold-6d" x="607.275391"/>
      <use xlink:href="#DejaVuSans-Bold-73" x="711.474609"/>
      <use xlink:href="#DejaVuSans-Bold-29" x="770.996094"/>
     </g>
    </g>
   </g>
   <g id="line2d_90">
    <path d="M 75.614489 222.425691 
L 98.88214 226.441131 
L 122.149792 223.137839 
L 145.417443 220.666906 
L 168.685095 217.3845 
L 191.952746 214.167436 
L 215.220398 208.240318 
L 238.488049 202.958519 
L 261.755701 194.79743 
L 285.023352 184.240457 
L 308.291004 171.875305 
L 331.558655 153.753042 
L 354.826307 134.034894 
L 378.093958 118.299267 
L 401.36161 102.316794 
L 424.629261 86.251679 
" clip-path="url(#p3890318962)" style="fill: none; stroke: #4c72b0; stroke-width: 1.5; stroke-linecap: round"/>
    <defs>
     <path id="mdf9f1666b7" d="M 0 3 
C 0.795609 3 1.55874 2.683901 2.12132 2.12132 
C 2.683901 1.55874 3 0.795609 3 0 
C 3 -0.795609 2.683901 -1.55874 2.12132 -2.12132 
C 1.55874 -2.683901 0.795609 -3 0 -3 
C -0.795609 -3 -1.55874 -2.683901 -2.12132 -2.12132 
C -2.683901 -1.55874 -3 -0.795609 -3 0 
C -3 0.795609 -2.683901 1.55874 -2.12132 2.12132 
C -1.55874 2.683901 -0.795609 3 0 3 
z
" style="stroke: #4c72b0"/>
    </defs>
    <g clip-path="url(#p3890318962)">
     <use xlink:href="#mdf9f1666b7" x="75.614489" y="222.425691" style="fill: #4c72b0; stroke: #4c72b0"/>
     <use xlink:href="#mdf9f1666b7" x="98.88214" y="226.441131" style="fill: #4c72b0; stroke: #4c72b0"/>
     <use xlink:href="#mdf9f1666b7" x="122.149792" y="223.137839" style="fill: #4c72b0; stroke: #4c72b0"/>
     <use xlink:href="#mdf9f1666b7" x="145.417443" y="220.666906" style="fill: #4c72b0; stroke: #4c72b0"/>
     <use xlink:href="#mdf9f1666b7" x="168.685095" y="217.3845" style="fill: #4c72b0; stroke: #4c72b0"/>
     <use xlink:href="#mdf9f1666b7" x="191.952746" y="214.167436" style="fill: #4c72b0; stroke: #4c72b0"/>
     <use xlink:href="#mdf9f1666b7" x="215.220398" y="208.240318" style="fill: #4c72b0; stroke: #4c72b0"/>
     <use xlink:href="#mdf9f1666b7" x="238.488049" y="202.958519" style="fill: #4c72b0; stroke: #4c72b0"/>
     <use xlink:href="#mdf9f1666b7" x="261.755701" y="194.79743" style="fill: #4c72b0; stroke: #4c72b0"/>
     <use xlink:href="#mdf9f1666b7" x="285.023352" y="184.240457" style="fill: #4c72b0; stroke: #4c72b0"/>
     <use xlink:href="#mdf9f1666b7" x="308.291004" y="171.875305" style="fill: #4c72b0; stroke: #4c72b0"/>
     <use xlink:href="#mdf9f1666b7" x="331.558655" y="153.753042" style="fill: #4c72b0; stroke: #4c72b0"/>
     <use xlink:href="#mdf9f1666b7" x="354.826307" y="134.034894" style="fill: #4c72b0; stroke: #4c72b0"/>
     <use xlink:href="#mdf9f1666b7" x="378.093958" y="118.299267" style="fill: #4c72b0; stroke: #4c72b0"/>
     <use xlink:href="#mdf9f1666b7" x="401.36161" y="102.316794" style="fill: #4c72b0; stroke: #4c72b0"/>
     <use xlink:href="#mdf9f1666b7" x="424.629261" y="86.251679" style="fill: #4c72b0; stroke: #4c72b0"/>
    </g>
   </g>
   <g id="line2d_91">
    <path d="M 75.614489 260.594688 
L 98.88214 255.734139 
L 122.149792 250.685629 
L 145.417443 245.878687 
L 168.685095 241.124568 
L 191.952746 236.861675 
L 215.220398 226.376148 
L 238.488049 217.089069 
L 261.755701 205.910158 
L 285.023352 191.834597 
L 308.291004 177.292343 
L 331.558655 160.792067 
L 354.826307 142.979303 
L 378.093958 126.754801 
L 401.36161 110.305855 
L 424.629261 93.903097 
" clip-path="url(#p3890318962)" style="fill: none; stroke: #dd8452; stroke-width: 1.5; stroke-linecap: round"/>
    <defs>
     <path id="m55de6602a4" d="M 0 3 
C 0.795609 3 1.55874 2.683901 2.12132 2.12132 
C 2.683901 1.55874 3 0.795609 3 0 
C 3 -0.795609 2.683901 -1.55874 2.12132 -2.12132 
C 1.55874 -2.683901 0.795609 -3 0 -3 
C -0.795609 -3 -1.55874 -2.683901 -2.12132 -2.12132 
C -2.683901 -1.55874 -3 -0.795609 -3 0 
C -3 0.795609 -2.683901 1.55874 -2.12132 2.12132 
C -1.55874 2.683901 -0.795609 3 0 3 
z
" style="stroke: #dd8452"/>
    </defs>
    <g clip-path="url(#p3890318962)">
     <use xlink:href="#m55de6602a4" x="75.614489" y="260.594688" style="fill: #dd8452; stroke: #dd8452"/>
     <use xlink:href="#m55de6602a4" x="98.88214" y="255.734139" style="fill: #dd8452; stroke: #dd8452"/>
     <use xlink:href="#m55de6602a4" x="122.149792" y="250.685629" style="fill: #dd8452; stroke: #dd8452"/>
     <use xlink:href="#m55de6602a4" x="145.417443" y="245.878687" style="fill: #dd8452; stroke: #dd8452"/>
     <use xlink:href="#m55de6602a4" x="168.685095" y="241.124568" style="fill: #dd8452; stroke: #dd8452"/>
     <use xlink:href="#m55de6602a4" x="191.952746" y="236.861675" style="fill: #dd8452; stroke: #dd8452"/>
     <use xlink:href="#m55de6602a4" x="215.220398" y="226.376148" style="fill: #dd8452; stroke: #dd8452"/>
     <use xlink:href="#m55de6602a4" x="238.488049" y="217.089069" style="fill: #dd8452; stroke: #dd8452"/>
     <use xlink:href="#m55de6602a4" x="261.755701" y="205.910158" style="fill: #dd8452; stroke: #dd8452"/>
     <use xlink:href="#m55de6602a4" x="285.023352" y="191.834597" style="fill: #dd8452; stroke: #dd8452"/>
     <use xlink:href="#m55de6602a4" x="308.291004" y="177.292343" style="fill: #dd8452; stroke: #dd8452"/>
     <use xlink:href="#m55de6602a4" x="331.558655" y="160.792067" style="fill: #dd8452; stroke: #dd8452"/>
     <use xlink:href="#m55de6602a4" x="354.826307" y="142.979303" style="fill: #dd8452; stroke: #dd8452"/>
     <use xlink:href="#m55de6602a4" x="378.093958" y="126.754801" style="fill: #dd8452; stroke: #dd8452"/>
     <use xlink:href="#m55de6602a4" x="401.36161" y="110.305855" style="fill: #dd8452; stroke: #dd8452"/>
     <use xlink:href="#m55de6602a4" x="424.629261" y="93.903097" style="fill: #dd8452; stroke: #dd8452"/>
    </g>
   </g>
   <g id="line2d_92">
    <path d="M 75.614489 269.008861 
L 98.88214 263.156182 
L 122.149792 257.257071 
L 145.417443 251.931158 
L 168.685095 246.47805 
L 191.952746 242.004217 
L 215.220398 231.441555 
L 238.488049 222.335283 
L 261.755701 211.4629 
L 285.023352 197.430349 
L 308.291004 182.945427 
L 331.558655 166.113756 
L 354.826307 147.7022 
L 378.093958 131.339855 
L 401.36161 114.879242 
L 424.629261 98.341211 
" clip-path="url(#p3890318962)" style="fill: none; stroke: #55a868; stroke-width: 1.5; stroke-linecap: round"/>
    <defs>
     <path id="m498ac652db" d="M 0 3 
C 0.795609 3 1.55874 2.683901 2.12132 2.12132 
C 2.683901 1.55874 3 0.795609 3 0 
C 3 -0.795609 2.683901 -1.55874 2.12132 -2.12132 
C 1.55874 -2.683901 0.795609 -3 0 -3 
C -0.795609 -3 -1.55874 -2.683901 -2.12132 -2.12132 
C -2.683901 -1.55874 -3 -0.795609 -3 0 
C -3 0.795609 -2.683901 1.55874 -2.12132 2.12132 
C -1.55874 2.683901 -0.795609 3 0 3 
z
" style="stroke: #55a868"/>
    </defs>
    <g clip-path="url(#p3890318962)">
     <use xlink:href="#m498ac652db" x="75.614489" y="269.008861" style="fill: #55a868; stroke: #55a868"/>
     <use xlink:href="#m498ac652db" x="98.88214" y="263.156182" style="fill: #55a868; stroke: #55a868"/>
     <use xlink:href="#m498ac652db" x="122.149792" y="257.257071" style="fill: #55a868; stroke: #55a868"/>
     <use xlink:href="#m498ac652db" x="145.417443" y="251.931158" style="fill: #55a868; stroke: #55a868"/>
     <use xlink:href="#m498ac652db" x="168.685095" y="246.47805" style="fill: #55a868; stroke: #55a868"/>
     <use xlink:href="#m498ac652db" x="191.952746" y="242.004217" style="fill: #55a868; stroke: #55a868"/>
     <use xlink:href="#m498ac652db" x="215.220398" y="231.441555" style="fill: #55a868; stroke: #55a868"/>
     <use xlink:href="#m498ac652db" x="238.488049" y="222.335283" style="fill: #55a868; stroke: #55a868"/>
     <use xlink:href="#m498ac652db" x="261.755701" y="211.4629" style="fill: #55a868; stroke: #55a868"/>
     <use xlink:href="#m498ac652db" x="285.023352" y="197.430349" style="fill: #55a868; stroke: #55a868"/>
     <use xlink:href="#m498ac652db" x="308.291004" y="182.945427" style="fill: #55a868; stroke: #55a868"/>
     <use xlink:href="#m498ac652db" x="331.558655" y="166.113756" style="fill: #55a868; stroke: #55a868"/>
     <use xlink:href="#m498ac652db" x="354.826307" y="147.7022" style="fill: #55a868; stroke: #55a868"/>
     <use xlink:href="#m498ac652db" x="378.093958" y="131.339855" style="fill: #55a868; stroke: #55a868"/>
     <use xlink:href="#m498ac652db" x="401.36161" y="114.879242" style="fill: #55a868; stroke: #55a868"/>
     <use xlink:href="#m498ac652db" x="424.629261" y="98.341211" style="fill: #55a868; stroke: #55a868"/>
    </g>
   </g>
   <g id="line2d_93">
    <path d="M 75.614489 278.214844 
L 98.88214 270.74876 
L 122.149792 263.598918 
L 145.417443 257.00125 
L 168.685095 250.517248 
L 191.952746 245.45699 
L 215.220398 234.317457 
L 238.488049 225.37062 
L 261.755701 214.319891 
L 285.023352 200.358343 
L 308.291004 185.865956 
L 331.558655 168.732461 
L 354.826307 149.908807 
L 378.093958 133.454526 
L 401.36161 116.906078 
L 424.629261 100.228415 
" clip-path="url(#p3890318962)" style="fill: none; stroke: #c44e52; stroke-width: 1.5; stroke-linecap: round"/>
    <defs>
     <path id="m0512a5193f" d="M 0 3 
C 0.795609 3 1.55874 2.683901 2.12132 2.12132 
C 2.683901 1.55874 3 0.795609 3 0 
C 3 -0.795609 2.683901 -1.55874 2.12132 -2.12132 
C 1.55874 -2.683901 0.795609 -3 0 -3 
C -0.795609 -3 -1.55874 -2.683901 -2.12132 -2.12132 
C -2.683901 -1.55874 -3 -0.795609 -3 0 
C -3 0.795609 -2.683901 1.55874 -2.12132 2.12132 
C -1.55874 2.683901 -0.795609 3 0 3 
z
" style="stroke: #c44e52"/>
    </defs>
    <g clip-path="url(#p3890318962)">
     <use xlink:href="#m0512a5193f" x="75.614489" y="278.214844" style="fill: #c44e52; stroke: #c44e52"/>
     <use xlink:href="#m0512a5193f" x="98.88214" y="270.74876" style="fill: #c44e52; stroke: #c44e52"/>
     <use xlink:href="#m0512a5193f" x="122.149792" y="263.598918" style="fill: #c44e52; stroke: #c44e52"/>
     <use xlink:href="#m0512a5193f" x="145.417443" y="257.00125" style="fill: #c44e52; stroke: #c44e52"/>
     <use xlink:href="#m0512a5193f" x="168.685095" y="250.517248" style="fill: #c44e52; stroke: #c44e52"/>
     <use xlink:href="#m0512a5193f" x="191.952746" y="245.45699" style="fill: #c44e52; stroke: #c44e52"/>
     <use xlink:href="#m0512a5193f" x="215.220398" y="234.317457" style="fill: #c44e52; stroke: #c44e52"/>
     <use xlink:href="#m0512a5193f" x="238.488049" y="225.37062" style="fill: #c44e52; stroke: #c44e52"/>
     <use xlink:href="#m0512a5193f" x="261.755701" y="214.319891" style="fill: #c44e52; stroke: #c44e52"/>
     <use xlink:href="#m0512a5193f" x="285.023352" y="200.358343" style="fill: #c44e52; stroke: #c44e52"/>
     <use xlink:href="#m0512a5193f" x="308.291004" y="185.865956" style="fill: #c44e52; stroke: #c44e52"/>
     <use xlink:href="#m0512a5193f" x="331.558655" y="168.732461" style="fill: #c44e52; stroke: #c44e52"/>
     <use xlink:href="#m0512a5193f" x="354.826307" y="149.908807" style="fill: #c44e52; stroke: #c44e52"/>
     <use xlink:href="#m0512a5193f" x="378.093958" y="133.454526" style="fill: #c44e52; stroke: #c44e52"/>
     <use xlink:href="#m0512a5193f" x="401.36161" y="116.906078" style="fill: #c44e52; stroke: #c44e52"/>
     <use xlink:href="#m0512a5193f" x="424.629261" y="100.228415" style="fill: #c44e52; stroke: #c44e52"/>
    </g>
   </g>
   <g id="line2d_94">
    <path d="M 75.614489 220.397762 
L 98.88214 203.001276 
L 122.149792 185.587164 
L 145.417443 168.413267 
L 168.685095 151.425663 
L 191.952746 134.860542 
L 215.220398 118.25285 
L 238.488049 101.748957 
L 261.755701 85.271466 
L 285.023352 68.950787 
L 308.291004 52.520721 
L 331.558655 36.230594 
L 354.826307 20.105469 
" clip-path="url(#p3890318962)" style="fill: none; stroke: #8172b3; stroke-width: 1.5; stroke-linecap: round"/>
    <defs>
     <path id="m47b879ae22" d="M 0 3 
C 0.795609 3 1.55874 2.683901 2.12132 2.12132 
C 2.683901 1.55874 3 0.795609 3 0 
C 3 -0.795609 2.683901 -1.55874 2.12132 -2.12132 
C 1.55874 -2.683901 0.795609 -3 0 -3 
C -0.795609 -3 -1.55874 -2.683901 -2.12132 -2.12132 
C -2.683901 -1.55874 -3 -0.795609 -3 0 
C -3 0.795609 -2.683901 1.55874 -2.12132 2.12132 
C -1.55874 2.683901 -0.795609 3 0 3 
z
" style="stroke: #8172b3"/>
    </defs>
    <g clip-path="url(#p3890318962)">
     <use xlink:href="#m47b879ae22" x="75.614489" y="220.397762" style="fill: #8172b3; stroke: #8172b3"/>
     <use xlink:href="#m47b879ae22" x="98.88214" y="203.001276" style="fill: #8172b3; stroke: #8172b3"/>
     <use xlink:href="#m47b879ae22" x="122.149792" y="185.587164" style="fill: #8172b3; stroke: #8172b3"/>
     <use xlink:href="#m47b879ae22" x="145.417443" y="168.413267" style="fill: #8172b3; stroke: #8172b3"/>
     <use xlink:href="#m47b879ae22" x="168.685095" y="151.425663" style="fill: #8172b3; stroke: #8172b3"/>
     <use xlink:href="#m47b879ae22" x="191.952746" y="134.860542" style="fill: #8172b3; stroke: #8172b3"/>
     <use xlink:href="#m47b879ae22" x="215.220398" y="118.25285" style="fill: #8172b3; stroke: #8172b3"/>
     <use xlink:href="#m47b879ae22" x="238.488049" y="101.748957" style="fill: #8172b3; stroke: #8172b3"/>
     <use xlink:href="#m47b879ae22" x="261.755701" y="85.271466" style="fill: #8172b3; stroke: #8172b3"/>
     <use xlink:href="#m47b879ae22" x="285.023352" y="68.950787" style="fill: #8172b3; stroke: #8172b3"/>
     <use xlink:href="#m47b879ae22" x="308.291004" y="52.520721" style="fill: #8172b3; stroke: #8172b3"/>
     <use xlink:href="#m47b879ae22" x="331.558655" y="36.230594" style="fill: #8172b3; stroke: #8172b3"/>
     <use xlink:href="#m47b879ae22" x="354.826307" y="20.105469" style="fill: #8172b3; stroke: #8172b3"/>
    </g>
   </g>
   <g id="patch_3">
    <path d="M 58.16375 291.120312 
L 58.16375 7.2 
" style="fill: none; stroke: #262626; stroke-width: 1.25; stroke-linejoin: miter; stroke-linecap: square"/>
   </g>
   <g id="patch_4">
    <path d="M 442.08 291.120312 
L 442.08 7.2 
" style="fill: none; stroke: #262626; stroke-width: 1.25; stroke-linejoin: miter; stroke-linecap: square"/>
   </g>
   <g id="patch_5">
    <path d="M 58.16375 291.120312 
L 442.08 291.120312 
" style="fill: none; stroke: #262626; stroke-width: 1.25; stroke-linejoin: miter; stroke-linecap: square"/>
   </g>
   <g id="patch_6">
    <path d="M 58.16375 7.2 
L 442.08 7.2 
" style="fill: none; stroke: #262626; stroke-width: 1.25; stroke-linejoin: miter; stroke-linecap: square"/>
   </g>
  </g>
  <g id="legend_1">
   <g id="patch_7">
    <path d="M 459.284 195.336562 
L 702.375406 195.336562 
Q 704.575406 195.336562 704.575406 193.136562 
L 704.575406 94.863437 
Q 704.575406 92.663437 702.375406 92.663437 
L 459.284 92.663437 
Q 457.084 92.663437 457.084 94.863437 
L 457.084 193.136562 
Q 457.084 195.336562 459.284 195.336562 
z
" style="fill: #ffffff; opacity: 0.8; stroke: #cccccc; stroke-linejoin: miter"/>
   </g>
   <g id="text_24">
    <!-- Algorithm -->
    <g style="fill: #262626" transform="translate(551.445641 106.181562) scale(0.12 -0.12)">
     <defs>
      <path id="DejaVuSans-41" d="M 2188 4044 
L 1331 1722 
L 3047 1722 
L 2188 4044 
z
M 1831 4666 
L 2547 4666 
L 4325 0 
L 3669 0 
L 3244 1197 
L 1141 1197 
L 716 0 
L 50 0 
L 1831 4666 
z
" transform="scale(0.015625)"/>
      <path id="DejaVuSans-6c" d="M 603 4863 
L 1178 4863 
L 1178 0 
L 603 0 
L 603 4863 
z
" transform="scale(0.015625)"/>
      <path id="DejaVuSans-67" d="M 2906 1791 
Q 2906 2416 2648 2759 
Q 2391 3103 1925 3103 
Q 1463 3103 1205 2759 
Q 947 2416 947 1791 
Q 947 1169 1205 825 
Q 1463 481 1925 481 
Q 2391 481 2648 825 
Q 2906 1169 2906 1791 
z
M 3481 434 
Q 3481 -459 3084 -895 
Q 2688 -1331 1869 -1331 
Q 1566 -1331 1297 -1286 
Q 1028 -1241 775 -1147 
L 775 -588 
Q 1028 -725 1275 -790 
Q 1522 -856 1778 -856 
Q 2344 -856 2625 -561 
Q 2906 -266 2906 331 
L 2906 616 
Q 2728 306 2450 153 
Q 2172 0 1784 0 
Q 1141 0 747 490 
Q 353 981 353 1791 
Q 353 2603 747 3093 
Q 1141 3584 1784 3584 
Q 2172 3584 2450 3431 
Q 2728 3278 2906 2969 
L 2906 3500 
L 3481 3500 
L 3481 434 
z
" transform="scale(0.015625)"/>
      <path id="DejaVuSans-6f" d="M 1959 3097 
Q 1497 3097 1228 2736 
Q 959 2375 959 1747 
Q 959 1119 1226 758 
Q 1494 397 1959 397 
Q 2419 397 2687 759 
Q 2956 1122 2956 1747 
Q 2956 2369 2687 2733 
Q 2419 3097 1959 3097 
z
M 1959 3584 
Q 2709 3584 3137 3096 
Q 3566 2609 3566 1747 
Q 3566 888 3137 398 
Q 2709 -91 1959 -91 
Q 1206 -91 779 398 
Q 353 888 353 1747 
Q 353 2609 779 3096 
Q 1206 3584 1959 3584 
z
" transform="scale(0.015625)"/>
      <path id="DejaVuSans-72" d="M 2631 2963 
Q 2534 3019 2420 3045 
Q 2306 3072 2169 3072 
Q 1681 3072 1420 2755 
Q 1159 2438 1159 1844 
L 1159 0 
L 581 0 
L 581 3500 
L 1159 3500 
L 1159 2956 
Q 1341 3275 1631 3429 
Q 1922 3584 2338 3584 
Q 2397 3584 2469 3576 
Q 2541 3569 2628 3553 
L 2631 2963 
z
" transform="scale(0.015625)"/>
      <path id="DejaVuSans-69" d="M 603 3500 
L 1178 3500 
L 1178 0 
L 603 0 
L 603 3500 
z
M 603 4863 
L 1178 4863 
L 1178 4134 
L 603 4134 
L 603 4863 
z
" transform="scale(0.015625)"/>
      <path id="DejaVuSans-74" d="M 1172 4494 
L 1172 3500 
L 2356 3500 
L 2356 3053 
L 1172 3053 
L 1172 1153 
Q 1172 725 1289 603 
Q 1406 481 1766 481 
L 2356 481 
L 2356 0 
L 1766 0 
Q 1100 0 847 248 
Q 594 497 594 1153 
L 594 3053 
L 172 3053 
L 172 3500 
L 594 3500 
L 594 4494 
L 1172 4494 
z
" transform="scale(0.015625)"/>
      <path id="DejaVuSans-68" d="M 3513 2113 
L 3513 0 
L 2938 0 
L 2938 2094 
Q 2938 2591 2744 2837 
Q 2550 3084 2163 3084 
Q 1697 3084 1428 2787 
Q 1159 2491 1159 1978 
L 1159 0 
L 581 0 
L 581 4863 
L 1159 4863 
L 1159 2956 
Q 1366 3272 1645 3428 
Q 1925 3584 2291 3584 
Q 2894 3584 3203 3211 
Q 3513 2838 3513 2113 
z
" transform="scale(0.015625)"/>
      <path id="DejaVuSans-6d" d="M 3328 2828 
Q 3544 3216 3844 3400 
Q 4144 3584 4550 3584 
Q 5097 3584 5394 3201 
Q 5691 2819 5691 2113 
L 5691 0 
L 5113 0 
L 5113 2094 
Q 5113 2597 4934 2840 
Q 4756 3084 4391 3084 
Q 3944 3084 3684 2787 
Q 3425 2491 3425 1978 
L 3425 0 
L 2847 0 
L 2847 2094 
Q 2847 2600 2669 2842 
Q 2491 3084 2119 3084 
Q 1678 3084 1418 2786 
Q 1159 2488 1159 1978 
L 1159 0 
L 581 0 
L 581 3500 
L 1159 3500 
L 1159 2956 
Q 1356 3278 1631 3431 
Q 1906 3584 2284 3584 
Q 2666 3584 2933 3390 
Q 3200 3197 3328 2828 
z
" transform="scale(0.015625)"/>
     </defs>
     <use xlink:href="#DejaVuSans-41"/>
     <use xlink:href="#DejaVuSans-6c" x="68.408203"/>
     <use xlink:href="#DejaVuSans-67" x="96.191406"/>
     <use xlink:href="#DejaVuSans-6f" x="159.667969"/>
     <use xlink:href="#DejaVuSans-72" x="220.849609"/>
     <use xlink:href="#DejaVuSans-69" x="261.962891"/>
     <use xlink:href="#DejaVuSans-74" x="289.746094"/>
     <use xlink:href="#DejaVuSans-68" x="328.955078"/>
     <use xlink:href="#DejaVuSans-6d" x="392.333984"/>
    </g>
   </g>
   <g id="line2d_95">
    <path d="M 461.484 118.685469 
L 472.484 118.685469 
L 483.484 118.685469 
" style="fill: none; stroke: #4c72b0; stroke-width: 1.5; stroke-linecap: round"/>
    <g>
     <use xlink:href="#mdf9f1666b7" x="472.484" y="118.685469" style="fill: #4c72b0; stroke: #4c72b0"/>
    </g>
   </g>
   <g id="text_25">
    <!-- global_memory_step_by_step -->
    <g style="fill: #262626" transform="translate(492.284 122.535469) scale(0.11 -0.11)">
     <defs>
      <path id="DejaVuSans-62" d="M 3116 1747 
Q 3116 2381 2855 2742 
Q 2594 3103 2138 3103 
Q 1681 3103 1420 2742 
Q 1159 2381 1159 1747 
Q 1159 1113 1420 752 
Q 1681 391 2138 391 
Q 2594 391 2855 752 
Q 3116 1113 3116 1747 
z
M 1159 2969 
Q 1341 3281 1617 3432 
Q 1894 3584 2278 3584 
Q 2916 3584 3314 3078 
Q 3713 2572 3713 1747 
Q 3713 922 3314 415 
Q 2916 -91 2278 -91 
Q 1894 -91 1617 61 
Q 1341 213 1159 525 
L 1159 0 
L 581 0 
L 581 4863 
L 1159 4863 
L 1159 2969 
z
" transform="scale(0.015625)"/>
      <path id="DejaVuSans-61" d="M 2194 1759 
Q 1497 1759 1228 1600 
Q 959 1441 959 1056 
Q 959 750 1161 570 
Q 1363 391 1709 391 
Q 2188 391 2477 730 
Q 2766 1069 2766 1631 
L 2766 1759 
L 2194 1759 
z
M 3341 1997 
L 3341 0 
L 2766 0 
L 2766 531 
Q 2569 213 2275 61 
Q 1981 -91 1556 -91 
Q 1019 -91 701 211 
Q 384 513 384 1019 
Q 384 1609 779 1909 
Q 1175 2209 1959 2209 
L 2766 2209 
L 2766 2266 
Q 2766 2663 2505 2880 
Q 2244 3097 1772 3097 
Q 1472 3097 1187 3025 
Q 903 2953 641 2809 
L 641 3341 
Q 956 3463 1253 3523 
Q 1550 3584 1831 3584 
Q 2591 3584 2966 3190 
Q 3341 2797 3341 1997 
z
" transform="scale(0.015625)"/>
      <path id="DejaVuSans-5f" d="M 3263 -1063 
L 3263 -1509 
L -63 -1509 
L -63 -1063 
L 3263 -1063 
z
" transform="scale(0.015625)"/>
      <path id="DejaVuSans-65" d="M 3597 1894 
L 3597 1613 
L 953 1613 
Q 991 1019 1311 708 
Q 1631 397 2203 397 
Q 2534 397 2845 478 
Q 3156 559 3463 722 
L 3463 178 
Q 3153 47 2828 -22 
Q 2503 -91 2169 -91 
Q 1331 -91 842 396 
Q 353 884 353 1716 
Q 353 2575 817 3079 
Q 1281 3584 2069 3584 
Q 2775 3584 3186 3129 
Q 3597 2675 3597 1894 
z
M 3022 2063 
Q 3016 2534 2758 2815 
Q 2500 3097 2075 3097 
Q 1594 3097 1305 2825 
Q 1016 2553 972 2059 
L 3022 2063 
z
" transform="scale(0.015625)"/>
      <path id="DejaVuSans-79" d="M 2059 -325 
Q 1816 -950 1584 -1140 
Q 1353 -1331 966 -1331 
L 506 -1331 
L 506 -850 
L 844 -850 
Q 1081 -850 1212 -737 
Q 1344 -625 1503 -206 
L 1606 56 
L 191 3500 
L 800 3500 
L 1894 763 
L 2988 3500 
L 3597 3500 
L 2059 -325 
z
" transform="scale(0.015625)"/>
      <path id="DejaVuSans-73" d="M 2834 3397 
L 2834 2853 
Q 2591 2978 2328 3040 
Q 2066 3103 1784 3103 
Q 1356 3103 1142 2972 
Q 928 2841 928 2578 
Q 928 2378 1081 2264 
Q 1234 2150 1697 2047 
L 1894 2003 
Q 2506 1872 2764 1633 
Q 3022 1394 3022 966 
Q 3022 478 2636 193 
Q 2250 -91 1575 -91 
Q 1294 -91 989 -36 
Q 684 19 347 128 
L 347 722 
Q 666 556 975 473 
Q 1284 391 1588 391 
Q 1994 391 2212 530 
Q 2431 669 2431 922 
Q 2431 1156 2273 1281 
Q 2116 1406 1581 1522 
L 1381 1569 
Q 847 1681 609 1914 
Q 372 2147 372 2553 
Q 372 3047 722 3315 
Q 1072 3584 1716 3584 
Q 2034 3584 2315 3537 
Q 2597 3491 2834 3397 
z
" transform="scale(0.015625)"/>
      <path id="DejaVuSans-70" d="M 1159 525 
L 1159 -1331 
L 581 -1331 
L 581 3500 
L 1159 3500 
L 1159 2969 
Q 1341 3281 1617 3432 
Q 1894 3584 2278 3584 
Q 2916 3584 3314 3078 
Q 3713 2572 3713 1747 
Q 3713 922 3314 415 
Q 2916 -91 2278 -91 
Q 1894 -91 1617 61 
Q 1341 213 1159 525 
z
M 3116 1747 
Q 3116 2381 2855 2742 
Q 2594 3103 2138 3103 
Q 1681 3103 1420 2742 
Q 1159 2381 1159 1747 
Q 1159 1113 1420 752 
Q 1681 391 2138 391 
Q 2594 391 2855 752 
Q 3116 1113 3116 1747 
z
" transform="scale(0.015625)"/>
     </defs>
     <use xlink:href="#DejaVuSans-67"/>
     <use xlink:href="#DejaVuSans-6c" x="63.476562"/>
     <use xlink:href="#DejaVuSans-6f" x="91.259766"/>
     <use xlink:href="#DejaVuSans-62" x="152.441406"/>
     <use xlink:href="#DejaVuSans-61" x="215.917969"/>
     <use xlink:href="#DejaVuSans-6c" x="277.197266"/>
     <use xlink:href="#DejaVuSans-5f" x="304.980469"/>
     <use xlink:href="#DejaVuSans-6d" x="354.980469"/>
     <use xlink:href="#DejaVuSans-65" x="452.392578"/>
     <use xlink:href="#DejaVuSans-6d" x="513.916016"/>
     <use xlink:href="#DejaVuSans-6f" x="611.328125"/>
     <use xlink:href="#DejaVuSans-72" x="672.509766"/>
     <use xlink:href="#DejaVuSans-79" x="713.623047"/>
     <use xlink:href="#DejaVuSans-5f" x="772.802734"/>
     <use xlink:href="#DejaVuSans-73" x="822.802734"/>
     <use xlink:href="#DejaVuSans-74" x="874.902344"/>
     <use xlink:href="#DejaVuSans-65" x="914.111328"/>
     <use xlink:href="#DejaVuSans-70" x="975.634766"/>
     <use xlink:href="#DejaVuSans-5f" x="1039.111328"/>
     <use xlink:href="#DejaVuSans-62" x="1089.111328"/>
     <use xlink:href="#DejaVuSans-79" x="1152.587891"/>
     <use xlink:href="#DejaVuSans-5f" x="1211.767578"/>
     <use xlink:href="#DejaVuSans-73" x="1261.767578"/>
     <use xlink:href="#DejaVuSans-74" x="1313.867188"/>
     <use xlink:href="#DejaVuSans-65" x="1353.076172"/>
     <use xlink:href="#DejaVuSans-70" x="1414.599609"/>
    </g>
   </g>
   <g id="line2d_96">
    <path d="M 461.484 135.137344 
L 472.484 135.137344 
L 483.484 135.137344 
" style="fill: none; stroke: #dd8452; stroke-width: 1.5; stroke-linecap: round"/>
    <g>
     <use xlink:href="#m55de6602a4" x="472.484" y="135.137344" style="fill: #dd8452; stroke: #dd8452"/>
    </g>
   </g>
   <g id="text_26">
    <!-- global_memory_grouped_steps -->
    <g style="fill: #262626" transform="translate(492.284 138.987344) scale(0.11 -0.11)">
     <defs>
      <path id="DejaVuSans-75" d="M 544 1381 
L 544 3500 
L 1119 3500 
L 1119 1403 
Q 1119 906 1312 657 
Q 1506 409 1894 409 
Q 2359 409 2629 706 
Q 2900 1003 2900 1516 
L 2900 3500 
L 3475 3500 
L 3475 0 
L 2900 0 
L 2900 538 
Q 2691 219 2414 64 
Q 2138 -91 1772 -91 
Q 1169 -91 856 284 
Q 544 659 544 1381 
z
M 1991 3584 
L 1991 3584 
z
" transform="scale(0.015625)"/>
      <path id="DejaVuSans-64" d="M 2906 2969 
L 2906 4863 
L 3481 4863 
L 3481 0 
L 2906 0 
L 2906 525 
Q 2725 213 2448 61 
Q 2172 -91 1784 -91 
Q 1150 -91 751 415 
Q 353 922 353 1747 
Q 353 2572 751 3078 
Q 1150 3584 1784 3584 
Q 2172 3584 2448 3432 
Q 2725 3281 2906 2969 
z
M 947 1747 
Q 947 1113 1208 752 
Q 1469 391 1925 391 
Q 2381 391 2643 752 
Q 2906 1113 2906 1747 
Q 2906 2381 2643 2742 
Q 2381 3103 1925 3103 
Q 1469 3103 1208 2742 
Q 947 2381 947 1747 
z
" transform="scale(0.015625)"/>
     </defs>
     <use xlink:href="#DejaVuSans-67"/>
     <use xlink:href="#DejaVuSans-6c" x="63.476562"/>
     <use xlink:href="#DejaVuSans-6f" x="91.259766"/>
     <use xlink:href="#DejaVuSans-62" x="152.441406"/>
     <use xlink:href="#DejaVuSans-61" x="215.917969"/>
     <use xlink:href="#DejaVuSans-6c" x="277.197266"/>
     <use xlink:href="#DejaVuSans-5f" x="304.980469"/>
     <use xlink:href="#DejaVuSans-6d" x="354.980469"/>
     <use xlink:href="#DejaVuSans-65" x="452.392578"/>
     <use xlink:href="#DejaVuSans-6d" x="513.916016"/>
     <use xlink:href="#DejaVuSans-6f" x="611.328125"/>
     <use xlink:href="#DejaVuSans-72" x="672.509766"/>
     <use xlink:href="#DejaVuSans-79" x="713.623047"/>
     <use xlink:href="#DejaVuSans-5f" x="772.802734"/>
     <use xlink:href="#DejaVuSans-67" x="822.802734"/>
     <use xlink:href="#DejaVuSans-72" x="886.279297"/>
     <use xlink:href="#DejaVuSans-6f" x="925.142578"/>
     <use xlink:href="#DejaVuSans-75" x="986.324219"/>
     <use xlink:href="#DejaVuSans-70" x="1049.703125"/>
     <use xlink:href="#DejaVuSans-65" x="1113.179688"/>
     <use xlink:href="#DejaVuSans-64" x="1174.703125"/>
     <use xlink:href="#DejaVuSans-5f" x="1238.179688"/>
     <use xlink:href="#DejaVuSans-73" x="1288.179688"/>
     <use xlink:href="#DejaVuSans-74" x="1340.279297"/>
     <use xlink:href="#DejaVuSans-65" x="1379.488281"/>
     <use xlink:href="#DejaVuSans-70" x="1441.011719"/>
     <use xlink:href="#DejaVuSans-73" x="1504.488281"/>
    </g>
   </g>
   <g id="line2d_97">
    <path d="M 461.484 151.589219 
L 472.484 151.589219 
L 483.484 151.589219 
" style="fill: none; stroke: #55a868; stroke-width: 1.5; stroke-linecap: round"/>
    <g>
     <use xlink:href="#m498ac652db" x="472.484" y="151.589219" style="fill: #55a868; stroke: #55a868"/>
    </g>
   </g>
   <g id="text_27">
    <!-- shared_memory_grouped_steps -->
    <g style="fill: #262626" transform="translate(492.284 155.439219) scale(0.11 -0.11)">
     <use xlink:href="#DejaVuSans-73"/>
     <use xlink:href="#DejaVuSans-68" x="52.099609"/>
     <use xlink:href="#DejaVuSans-61" x="115.478516"/>
     <use xlink:href="#DejaVuSans-72" x="176.757812"/>
     <use xlink:href="#DejaVuSans-65" x="215.621094"/>
     <use xlink:href="#DejaVuSans-64" x="277.144531"/>
     <use xlink:href="#DejaVuSans-5f" x="340.621094"/>
     <use xlink:href="#DejaVuSans-6d" x="390.621094"/>
     <use xlink:href="#DejaVuSans-65" x="488.033203"/>
     <use xlink:href="#DejaVuSans-6d" x="549.556641"/>
     <use xlink:href="#DejaVuSans-6f" x="646.96875"/>
     <use xlink:href="#DejaVuSans-72" x="708.150391"/>
     <use xlink:href="#DejaVuSans-79" x="749.263672"/>
     <use xlink:href="#DejaVuSans-5f" x="808.443359"/>
     <use xlink:href="#DejaVuSans-67" x="858.443359"/>
     <use xlink:href="#DejaVuSans-72" x="921.919922"/>
     <use xlink:href="#DejaVuSans-6f" x="960.783203"/>
     <use xlink:href="#DejaVuSans-75" x="1021.964844"/>
     <use xlink:href="#DejaVuSans-70" x="1085.34375"/>
     <use xlink:href="#DejaVuSans-65" x="1148.820312"/>
     <use xlink:href="#DejaVuSans-64" x="1210.34375"/>
     <use xlink:href="#DejaVuSans-5f" x="1273.820312"/>
     <use xlink:href="#DejaVuSans-73" x="1323.820312"/>
     <use xlink:href="#DejaVuSans-74" x="1375.919922"/>
     <use xlink:href="#DejaVuSans-65" x="1415.128906"/>
     <use xlink:href="#DejaVuSans-70" x="1476.652344"/>
     <use xlink:href="#DejaVuSans-73" x="1540.128906"/>
    </g>
   </g>
   <g id="line2d_98">
    <path d="M 461.484 168.041094 
L 472.484 168.041094 
L 483.484 168.041094 
" style="fill: none; stroke: #c44e52; stroke-width: 1.5; stroke-linecap: round"/>
    <g>
     <use xlink:href="#m0512a5193f" x="472.484" y="168.041094" style="fill: #c44e52; stroke: #c44e52"/>
    </g>
   </g>
   <g id="text_28">
    <!-- shared_memory_grouped_steps_warp -->
    <g style="fill: #262626" transform="translate(492.284 171.891094) scale(0.11 -0.11)">
     <defs>
      <path id="DejaVuSans-77" d="M 269 3500 
L 844 3500 
L 1563 769 
L 2278 3500 
L 2956 3500 
L 3675 769 
L 4391 3500 
L 4966 3500 
L 4050 0 
L 3372 0 
L 2619 2869 
L 1863 0 
L 1184 0 
L 269 3500 
z
" transform="scale(0.015625)"/>
     </defs>
     <use xlink:href="#DejaVuSans-73"/>
     <use xlink:href="#DejaVuSans-68" x="52.099609"/>
     <use xlink:href="#DejaVuSans-61" x="115.478516"/>
     <use xlink:href="#DejaVuSans-72" x="176.757812"/>
     <use xlink:href="#DejaVuSans-65" x="215.621094"/>
     <use xlink:href="#DejaVuSans-64" x="277.144531"/>
     <use xlink:href="#DejaVuSans-5f" x="340.621094"/>
     <use xlink:href="#DejaVuSans-6d" x="390.621094"/>
     <use xlink:href="#DejaVuSans-65" x="488.033203"/>
     <use xlink:href="#DejaVuSans-6d" x="549.556641"/>
     <use xlink:href="#DejaVuSans-6f" x="646.96875"/>
     <use xlink:href="#DejaVuSans-72" x="708.150391"/>
     <use xlink:href="#DejaVuSans-79" x="749.263672"/>
     <use xlink:href="#DejaVuSans-5f" x="808.443359"/>
     <use xlink:href="#DejaVuSans-67" x="858.443359"/>
     <use xlink:href="#DejaVuSans-72" x="921.919922"/>
     <use xlink:href="#DejaVuSans-6f" x="960.783203"/>
     <use xlink:href="#DejaVuSans-75" x="1021.964844"/>
     <use xlink:href="#DejaVuSans-70" x="1085.34375"/>
     <use xlink:href="#DejaVuSans-65" x="1148.820312"/>
     <use xlink:href="#DejaVuSans-64" x="1210.34375"/>
     <use xlink:href="#DejaVuSans-5f" x="1273.820312"/>
     <use xlink:href="#DejaVuSans-73" x="1323.820312"/>
     <use xlink:href="#DejaVuSans-74" x="1375.919922"/>
     <use xlink:href="#DejaVuSans-65" x="1415.128906"/>
     <use xlink:href="#DejaVuSans-70" x="1476.652344"/>
     <use xlink:href="#DejaVuSans-73" x="1540.128906"/>
     <use xlink:href="#DejaVuSans-5f" x="1592.228516"/>
     <use xlink:href="#DejaVuSans-77" x="1642.228516"/>
     <use xlink:href="#DejaVuSans-61" x="1724.015625"/>
     <use xlink:href="#DejaVuSans-72" x="1785.294922"/>
     <use xlink:href="#DejaVuSans-70" x="1826.408203"/>
    </g>
   </g>
   <g id="line2d_99">
    <path d="M 461.484 184.492969 
L 472.484 184.492969 
L 483.484 184.492969 
" style="fill: none; stroke: #8172b3; stroke-width: 1.5; stroke-linecap: round"/>
    <g>
     <use xlink:href="#m47b879ae22" x="472.484" y="184.492969" style="fill: #8172b3; stroke: #8172b3"/>
    </g>
   </g>
   <g id="text_29">
    <!-- cpu_implementation_O3 -->
    <g style="fill: #262626" transform="translate(492.284 188.342969) scale(0.11 -0.11)">
     <defs>
      <path id="DejaVuSans-63" d="M 3122 3366 
L 3122 2828 
Q 2878 2963 2633 3030 
Q 2388 3097 2138 3097 
Q 1578 3097 1268 2742 
Q 959 2388 959 1747 
Q 959 1106 1268 751 
Q 1578 397 2138 397 
Q 2388 397 2633 464 
Q 2878 531 3122 666 
L 3122 134 
Q 2881 22 2623 -34 
Q 2366 -91 2075 -91 
Q 1284 -91 818 406 
Q 353 903 353 1747 
Q 353 2603 823 3093 
Q 1294 3584 2113 3584 
Q 2378 3584 2631 3529 
Q 2884 3475 3122 3366 
z
" transform="scale(0.015625)"/>
      <path id="DejaVuSans-6e" d="M 3513 2113 
L 3513 0 
L 2938 0 
L 2938 2094 
Q 2938 2591 2744 2837 
Q 2550 3084 2163 3084 
Q 1697 3084 1428 2787 
Q 1159 2491 1159 1978 
L 1159 0 
L 581 0 
L 581 3500 
L 1159 3500 
L 1159 2956 
Q 1366 3272 1645 3428 
Q 1925 3584 2291 3584 
Q 2894 3584 3203 3211 
Q 3513 2838 3513 2113 
z
" transform="scale(0.015625)"/>
      <path id="DejaVuSans-4f" d="M 2522 4238 
Q 1834 4238 1429 3725 
Q 1025 3213 1025 2328 
Q 1025 1447 1429 934 
Q 1834 422 2522 422 
Q 3209 422 3611 934 
Q 4013 1447 4013 2328 
Q 4013 3213 3611 3725 
Q 3209 4238 2522 4238 
z
M 2522 4750 
Q 3503 4750 4090 4092 
Q 4678 3434 4678 2328 
Q 4678 1225 4090 567 
Q 3503 -91 2522 -91 
Q 1538 -91 948 565 
Q 359 1222 359 2328 
Q 359 3434 948 4092 
Q 1538 4750 2522 4750 
z
" transform="scale(0.015625)"/>
     </defs>
     <use xlink:href="#DejaVuSans-63"/>
     <use xlink:href="#DejaVuSans-70" x="54.980469"/>
     <use xlink:href="#DejaVuSans-75" x="118.457031"/>
     <use xlink:href="#DejaVuSans-5f" x="181.835938"/>
     <use xlink:href="#DejaVuSans-69" x="231.835938"/>
     <use xlink:href="#DejaVuSans-6d" x="259.619141"/>
     <use xlink:href="#DejaVuSans-70" x="357.03125"/>
     <use xlink:href="#DejaVuSans-6c" x="420.507812"/>
     <use xlink:href="#DejaVuSans-65" x="448.291016"/>
     <use xlink:href="#DejaVuSans-6d" x="509.814453"/>
     <use xlink:href="#DejaVuSans-65" x="607.226562"/>
     <use xlink:href="#DejaVuSans-6e" x="668.75"/>
     <use xlink:href="#DejaVuSans-74" x="732.128906"/>
     <use xlink:href="#DejaVuSans-61" x="771.337891"/>
     <use xlink:href="#DejaVuSans-74" x="832.617188"/>
     <use xlink:href="#DejaVuSans-69" x="871.826172"/>
     <use xlink:href="#DejaVuSans-6f" x="899.609375"/>
     <use xlink:href="#DejaVuSans-6e" x="960.791016"/>
     <use xlink:href="#DejaVuSans-5f" x="1024.169922"/>
     <use xlink:href="#DejaVuSans-4f" x="1074.169922"/>
     <use xlink:href="#DejaVuSans-33" x="1152.880859"/>
    </g>
   </g>
  </g>
 </g>
 <defs>
  <clipPath id="p3890318962">
   <rect x="58.16375" y="7.2" width="383.91625" height="283.920313"/>
  </clipPath>
 </defs>
</svg>
